<svg xmlns="http://www.w3.org/2000/svg" viewBox="0 0 131 188"><path d="M 57,17 h1 M 58,18 h1 M 59,18 h1 M 58,19 h1 M 59,19 h1 M 60,19 h1 M 59,20 h1 M 60,20 h1 M 61,20 h1 M 62,20 h1 M 59,21 h1 M 60,21 h1 M 61,21 h1 M 62,21 h1 M 59,22 h1 M 60,22 h1 M 61,22 h1 M 62,22 h1 M 63,22 h1 M 64,22 h1 M 60,23 h1 M 61,23 h1 M 62,23 h1 M 63,23 h1 M 64,23 h1 M 65,23 h1 M 60,24 h1 M 61,24 h1 M 62,24 h1 M 63,24 h1 M 64,24 h1 M 65,24 h1 M 66,24 h1 M 61,25 h1 M 62,25 h1 M 63,25 h1 M 64,25 h1 M 65,25 h1 M 66,25 h1 M 67,25 h1 M 61,26 h1 M 62,26 h1 M 63,26 h1 M 64,26 h1 M 65,26 h1 M 66,26 h1 M 67,26 h1 M 61,27 h1 M 62,27 h1 M 63,27 h1 M 64,27 h1 M 65,27 h1 M 66,27 h1 M 67,27 h1 M 68,27 h1 M 62,28 h1 M 63,28 h1 M 64,28 h1 M 65,28 h1 M 66,28 h1 M 67,28 h1 M 68,28 h1 M 69,28 h1 M 70,28 h1 M 62,29 h1 M 63,29 h1 M 64,29 h1 M 65,29 h1 M 66,29 h1 M 67,29 h1 M 68,29 h1 M 69,29 h1 M 70,29 h1 M 62,30 h1 M 63,30 h1 M 64,30 h1 M 65,30 h1 M 66,30 h1 M 67,30 h1 M 68,30 h1 M 69,30 h1 M 70,30 h1 M 71,30 h1 M 62,31 h1 M 63,31 h1 M 64,31 h1 M 65,31 h1 M 66,31 h1 M 67,31 h1 M 68,31 h1 M 69,31 h1 M 70,31 h1 M 71,31 h1 M 72,31 h1 M 62,32 h1 M 63,32 h1 M 64,32 h1 M 65,32 h1 M 66,32 h1 M 67,32 h1 M 68,32 h1 M 69,32 h1 M 70,32 h1 M 71,32 h1 M 72,32 h1 M 73,32 h1 M 63,33 h1 M 64,33 h1 M 65,33 h1 M 66,33 h1 M 67,33 h1 M 68,33 h1 M 69,33 h1 M 70,33 h1 M 71,33 h1 M 72,33 h1 M 73,33 h1 M 74,33 h1 M 63,34 h1 M 64,34 h1 M 65,34 h1 M 66,34 h1 M 67,34 h1 M 68,34 h1 M 69,34 h1 M 70,34 h1 M 71,34 h1 M 72,34 h1 M 73,34 h1 M 74,34 h1 M 63,35 h1 M 64,35 h1 M 65,35 h1 M 66,35 h1 M 67,35 h1 M 68,35 h1 M 69,35 h1 M 70,35 h1 M 71,35 h1 M 72,35 h1 M 73,35 h1 M 74,35 h1 M 75,35 h1 M 76,35 h1 M 63,36 h1 M 64,36 h1 M 65,36 h1 M 66,36 h1 M 67,36 h1 M 68,36 h1 M 69,36 h1 M 70,36 h1 M 71,36 h1 M 72,36 h1 M 73,36 h1 M 74,36 h1 M 75,36 h1 M 76,36 h1 M 63,37 h1 M 64,37 h1 M 65,37 h1 M 66,37 h1 M 67,37 h1 M 68,37 h1 M 69,37 h1 M 70,37 h1 M 71,37 h1 M 72,37 h1 M 73,37 h1 M 74,37 h1 M 75,37 h1 M 76,37 h1 M 77,37 h1 M 63,38 h1 M 64,38 h1 M 65,38 h1 M 66,38 h1 M 67,38 h1 M 68,38 h1 M 69,38 h1 M 70,38 h1 M 71,38 h1 M 72,38 h1 M 73,38 h1 M 74,38 h1 M 75,38 h1 M 76,38 h1 M 77,38 h1 M 63,39 h1 M 64,39 h1 M 65,39 h1 M 66,39 h1 M 67,39 h1 M 68,39 h1 M 69,39 h1 M 70,39 h1 M 71,39 h1 M 72,39 h1 M 73,39 h1 M 74,39 h1 M 75,39 h1 M 76,39 h1 M 77,39 h1 M 78,39 h1 M 63,40 h1 M 64,40 h1 M 65,40 h1 M 66,40 h1 M 67,40 h1 M 68,40 h1 M 69,40 h1 M 70,40 h1 M 71,40 h1 M 72,40 h1 M 73,40 h1 M 74,40 h1 M 75,40 h1 M 76,40 h1 M 77,40 h1 M 78,40 h1 M 63,41 h1 M 64,41 h1 M 65,41 h1 M 66,41 h1 M 67,41 h1 M 68,41 h1 M 69,41 h1 M 70,41 h1 M 71,41 h1 M 72,41 h1 M 73,41 h1 M 74,41 h1 M 75,41 h1 M 76,41 h1 M 77,41 h1 M 78,41 h1 M 79,41 h1 M 63,42 h1 M 64,42 h1 M 65,42 h1 M 66,42 h1 M 67,42 h1 M 68,42 h1 M 69,42 h1 M 70,42 h1 M 71,42 h1 M 72,42 h1 M 73,42 h1 M 74,42 h1 M 75,42 h1 M 76,42 h1 M 77,42 h1 M 78,42 h1 M 79,42 h1 M 63,43 h1 M 64,43 h1 M 65,43 h1 M 66,43 h1 M 67,43 h1 M 68,43 h1 M 69,43 h1 M 70,43 h1 M 71,43 h1 M 72,43 h1 M 73,43 h1 M 74,43 h1 M 75,43 h1 M 76,43 h1 M 77,43 h1 M 78,43 h1 M 79,43 h1 M 80,43 h1 M 63,44 h1 M 64,44 h1 M 65,44 h1 M 66,44 h1 M 67,44 h1 M 68,44 h1 M 69,44 h1 M 70,44 h1 M 71,44 h1 M 72,44 h1 M 73,44 h1 M 74,44 h1 M 75,44 h1 M 76,44 h1 M 77,44 h1 M 78,44 h1 M 79,44 h1 M 80,44 h1 M 63,45 h1 M 64,45 h1 M 65,45 h1 M 66,45 h1 M 67,45 h1 M 68,45 h1 M 69,45 h1 M 70,45 h1 M 71,45 h1 M 72,45 h1 M 73,45 h1 M 74,45 h1 M 75,45 h1 M 76,45 h1 M 77,45 h1 M 78,45 h1 M 79,45 h1 M 80,45 h1 M 81,45 h1 M 63,46 h1 M 64,46 h1 M 65,46 h1 M 66,46 h1 M 67,46 h1 M 68,46 h1 M 69,46 h1 M 70,46 h1 M 71,46 h1 M 72,46 h1 M 73,46 h1 M 74,46 h1 M 75,46 h1 M 76,46 h1 M 77,46 h1 M 78,46 h1 M 79,46 h1 M 80,46 h1 M 81,46 h1 M 63,47 h1 M 64,47 h1 M 65,47 h1 M 66,47 h1 M 67,47 h1 M 68,47 h1 M 69,47 h1 M 70,47 h1 M 71,47 h1 M 72,47 h1 M 73,47 h1 M 74,47 h1 M 75,47 h1 M 76,47 h1 M 77,47 h1 M 78,47 h1 M 79,47 h1 M 80,47 h1 M 81,47 h1 M 82,47 h1 M 62,48 h1 M 63,48 h1 M 64,48 h1 M 65,48 h1 M 66,48 h1 M 67,48 h1 M 68,48 h1 M 69,48 h1 M 70,48 h1 M 71,48 h1 M 72,48 h1 M 73,48 h1 M 74,48 h1 M 75,48 h1 M 76,48 h1 M 77,48 h1 M 78,48 h1 M 79,48 h1 M 80,48 h1 M 81,48 h1 M 82,48 h1 M 62,49 h1 M 63,49 h1 M 64,49 h1 M 65,49 h1 M 66,49 h1 M 67,49 h1 M 68,49 h1 M 69,49 h1 M 70,49 h1 M 71,49 h1 M 72,49 h1 M 73,49 h1 M 74,49 h1 M 75,49 h1 M 76,49 h1 M 77,49 h1 M 78,49 h1 M 79,49 h1 M 80,49 h1 M 81,49 h1 M 82,49 h1 M 62,50 h1 M 63,50 h1 M 64,50 h1 M 65,50 h1 M 66,50 h1 M 67,50 h1 M 68,50 h1 M 69,50 h1 M 70,50 h1 M 71,50 h1 M 72,50 h1 M 73,50 h1 M 74,50 h1 M 75,50 h1 M 76,50 h1 M 77,50 h1 M 78,50 h1 M 79,50 h1 M 80,50 h1 M 81,50 h1 M 82,50 h1 M 83,50 h1 M 61,51 h1 M 62,51 h1 M 63,51 h1 M 64,51 h1 M 65,51 h1 M 66,51 h1 M 67,51 h1 M 68,51 h1 M 69,51 h1 M 70,51 h1 M 71,51 h1 M 72,51 h1 M 73,51 h1 M 74,51 h1 M 75,51 h1 M 76,51 h1 M 77,51 h1 M 78,51 h1 M 79,51 h1 M 80,51 h1 M 81,51 h1 M 82,51 h1 M 83,51 h1 M 61,52 h1 M 62,52 h1 M 63,52 h1 M 64,52 h1 M 65,52 h1 M 66,52 h1 M 67,52 h1 M 68,52 h1 M 69,52 h1 M 70,52 h1 M 71,52 h1 M 72,52 h1 M 73,52 h1 M 74,52 h1 M 75,52 h1 M 76,52 h1 M 77,52 h1 M 78,52 h1 M 79,52 h1 M 80,52 h1 M 81,52 h1 M 82,52 h1 M 83,52 h1 M 61,53 h1 M 62,53 h1 M 63,53 h1 M 64,53 h1 M 65,53 h1 M 66,53 h1 M 67,53 h1 M 68,53 h1 M 69,53 h1 M 70,53 h1 M 71,53 h1 M 72,53 h1 M 73,53 h1 M 74,53 h1 M 75,53 h1 M 76,53 h1 M 77,53 h1 M 78,53 h1 M 79,53 h1 M 80,53 h1 M 81,53 h1 M 82,53 h1 M 83,53 h1 M 60,54 h1 M 61,54 h1 M 62,54 h1 M 63,54 h1 M 64,54 h1 M 65,54 h1 M 66,54 h1 M 67,54 h1 M 68,54 h1 M 69,54 h1 M 70,54 h1 M 71,54 h1 M 72,54 h1 M 73,54 h1 M 74,54 h1 M 75,54 h1 M 76,54 h1 M 77,54 h1 M 78,54 h1 M 79,54 h1 M 80,54 h1 M 81,54 h1 M 82,54 h1 M 83,54 h1 M 60,55 h1 M 61,55 h1 M 62,55 h1 M 63,55 h1 M 64,55 h1 M 65,55 h1 M 66,55 h1 M 67,55 h1 M 68,55 h1 M 69,55 h1 M 70,55 h1 M 71,55 h1 M 72,55 h1 M 73,55 h1 M 74,55 h1 M 75,55 h1 M 76,55 h1 M 77,55 h1 M 78,55 h1 M 79,55 h1 M 80,55 h1 M 81,55 h1 M 82,55 h1 M 83,55 h1 M 59,56 h1 M 60,56 h1 M 61,56 h1 M 62,56 h1 M 63,56 h1 M 64,56 h1 M 65,56 h1 M 66,56 h1 M 67,56 h1 M 68,56 h1 M 69,56 h1 M 70,56 h1 M 71,56 h1 M 72,56 h1 M 73,56 h1 M 74,56 h1 M 75,56 h1 M 76,56 h1 M 77,56 h1 M 78,56 h1 M 79,56 h1 M 80,56 h1 M 81,56 h1 M 82,56 h1 M 83,56 h1 M 59,57 h1 M 60,57 h1 M 61,57 h1 M 62,57 h1 M 63,57 h1 M 64,57 h1 M 65,57 h1 M 66,57 h1 M 67,57 h1 M 68,57 h1 M 69,57 h1 M 70,57 h1 M 71,57 h1 M 72,57 h1 M 73,57 h1 M 74,57 h1 M 75,57 h1 M 76,57 h1 M 77,57 h1 M 78,57 h1 M 79,57 h1 M 80,57 h1 M 81,57 h1 M 82,57 h1 M 83,57 h1 M 58,58 h1 M 59,58 h1 M 60,58 h1 M 61,58 h1 M 62,58 h1 M 63,58 h1 M 64,58 h1 M 65,58 h1 M 66,58 h1 M 67,58 h1 M 68,58 h1 M 69,58 h1 M 70,58 h1 M 71,58 h1 M 72,58 h1 M 73,58 h1 M 74,58 h1 M 75,58 h1 M 76,58 h1 M 77,58 h1 M 78,58 h1 M 79,58 h1 M 80,58 h1 M 81,58 h1 M 82,58 h1 M 83,58 h1 M 57,59 h1 M 58,59 h1 M 59,59 h1 M 60,59 h1 M 61,59 h1 M 62,59 h1 M 63,59 h1 M 64,59 h1 M 65,59 h1 M 66,59 h1 M 67,59 h1 M 68,59 h1 M 69,59 h1 M 70,59 h1 M 71,59 h1 M 72,59 h1 M 73,59 h1 M 74,59 h1 M 75,59 h1 M 76,59 h1 M 77,59 h1 M 78,59 h1 M 79,59 h1 M 80,59 h1 M 81,59 h1 M 82,59 h1 M 83,59 h1 M 57,60 h1 M 58,60 h1 M 59,60 h1 M 60,60 h1 M 61,60 h1 M 62,60 h1 M 63,60 h1 M 64,60 h1 M 65,60 h1 M 66,60 h1 M 67,60 h1 M 68,60 h1 M 69,60 h1 M 70,60 h1 M 71,60 h1 M 72,60 h1 M 73,60 h1 M 74,60 h1 M 75,60 h1 M 76,60 h1 M 77,60 h1 M 78,60 h1 M 79,60 h1 M 80,60 h1 M 81,60 h1 M 82,60 h1 M 97,60 h1 M 98,60 h1 M 57,61 h1 M 58,61 h1 M 59,61 h1 M 60,61 h1 M 61,61 h1 M 62,61 h1 M 63,61 h1 M 64,61 h1 M 65,61 h1 M 66,61 h1 M 67,61 h1 M 68,61 h1 M 69,61 h1 M 70,61 h1 M 71,61 h1 M 72,61 h1 M 73,61 h1 M 74,61 h1 M 75,61 h1 M 76,61 h1 M 77,61 h1 M 78,61 h1 M 79,61 h1 M 80,61 h1 M 81,61 h1 M 82,61 h1 M 97,61 h1 M 98,61 h1 M 56,62 h1 M 57,62 h1 M 58,62 h1 M 59,62 h1 M 60,62 h1 M 61,62 h1 M 62,62 h1 M 63,62 h1 M 64,62 h1 M 65,62 h1 M 66,62 h1 M 67,62 h1 M 68,62 h1 M 69,62 h1 M 70,62 h1 M 71,62 h1 M 72,62 h1 M 73,62 h1 M 74,62 h1 M 75,62 h1 M 76,62 h1 M 77,62 h1 M 78,62 h1 M 79,62 h1 M 80,62 h1 M 81,62 h1 M 82,62 h1 M 97,62 h1 M 98,62 h1 M 55,63 h1 M 56,63 h1 M 57,63 h1 M 58,63 h1 M 59,63 h1 M 60,63 h1 M 61,63 h1 M 62,63 h1 M 63,63 h1 M 64,63 h1 M 65,63 h1 M 66,63 h1 M 67,63 h1 M 68,63 h1 M 69,63 h1 M 70,63 h1 M 71,63 h1 M 72,63 h1 M 73,63 h1 M 74,63 h1 M 75,63 h1 M 76,63 h1 M 77,63 h1 M 78,63 h1 M 79,63 h1 M 80,63 h1 M 81,63 h1 M 82,63 h1 M 98,63 h1 M 99,63 h1 M 54,64 h1 M 55,64 h1 M 56,64 h1 M 57,64 h1 M 58,64 h1 M 59,64 h1 M 60,64 h1 M 61,64 h1 M 62,64 h1 M 63,64 h1 M 64,64 h1 M 65,64 h1 M 66,64 h1 M 67,64 h1 M 68,64 h1 M 69,64 h1 M 70,64 h1 M 71,64 h1 M 72,64 h1 M 73,64 h1 M 74,64 h1 M 75,64 h1 M 76,64 h1 M 77,64 h1 M 78,64 h1 M 79,64 h1 M 80,64 h1 M 81,64 h1 M 98,64 h1 M 99,64 h1 M 54,65 h1 M 55,65 h1 M 56,65 h1 M 57,65 h1 M 58,65 h1 M 59,65 h1 M 60,65 h1 M 61,65 h1 M 62,65 h1 M 63,65 h1 M 64,65 h1 M 65,65 h1 M 66,65 h1 M 67,65 h1 M 68,65 h1 M 69,65 h1 M 70,65 h1 M 71,65 h1 M 72,65 h1 M 73,65 h1 M 74,65 h1 M 75,65 h1 M 76,65 h1 M 77,65 h1 M 78,65 h1 M 79,65 h1 M 80,65 h1 M 81,65 h1 M 98,65 h1 M 99,65 h1 M 100,65 h1 M 53,66 h1 M 54,66 h1 M 55,66 h1 M 56,66 h1 M 57,66 h1 M 58,66 h1 M 59,66 h1 M 60,66 h1 M 61,66 h1 M 62,66 h1 M 63,66 h1 M 64,66 h1 M 65,66 h1 M 66,66 h1 M 67,66 h1 M 68,66 h1 M 69,66 h1 M 70,66 h1 M 71,66 h1 M 72,66 h1 M 73,66 h1 M 74,66 h1 M 75,66 h1 M 76,66 h1 M 77,66 h1 M 78,66 h1 M 79,66 h1 M 80,66 h1 M 97,66 h1 M 98,66 h1 M 99,66 h1 M 100,66 h1 M 52,67 h1 M 53,67 h1 M 54,67 h1 M 55,67 h1 M 56,67 h1 M 57,67 h1 M 58,67 h1 M 59,67 h1 M 60,67 h1 M 61,67 h1 M 62,67 h1 M 63,67 h1 M 64,67 h1 M 65,67 h1 M 66,67 h1 M 67,67 h1 M 68,67 h1 M 69,67 h1 M 70,67 h1 M 71,67 h1 M 72,67 h1 M 73,67 h1 M 74,67 h1 M 75,67 h1 M 76,67 h1 M 77,67 h1 M 78,67 h1 M 79,67 h1 M 80,67 h1 M 97,67 h1 M 98,67 h1 M 99,67 h1 M 100,67 h1 M 51,68 h1 M 52,68 h1 M 53,68 h1 M 54,68 h1 M 55,68 h1 M 56,68 h1 M 57,68 h1 M 58,68 h1 M 59,68 h1 M 60,68 h1 M 61,68 h1 M 62,68 h1 M 63,68 h1 M 64,68 h1 M 65,68 h1 M 66,68 h1 M 67,68 h1 M 68,68 h1 M 69,68 h1 M 70,68 h1 M 71,68 h1 M 72,68 h1 M 73,68 h1 M 74,68 h1 M 75,68 h1 M 76,68 h1 M 77,68 h1 M 78,68 h1 M 79,68 h1 M 80,68 h1 M 97,68 h1 M 98,68 h1 M 99,68 h1 M 100,68 h1 M 50,69 h1 M 51,69 h1 M 52,69 h1 M 53,69 h1 M 54,69 h1 M 55,69 h1 M 56,69 h1 M 57,69 h1 M 58,69 h1 M 59,69 h1 M 60,69 h1 M 61,69 h1 M 62,69 h1 M 63,69 h1 M 64,69 h1 M 65,69 h1 M 66,69 h1 M 67,69 h1 M 68,69 h1 M 69,69 h1 M 70,69 h1 M 71,69 h1 M 72,69 h1 M 73,69 h1 M 74,69 h1 M 75,69 h1 M 76,69 h1 M 77,69 h1 M 78,69 h1 M 79,69 h1 M 97,69 h1 M 98,69 h1 M 99,69 h1 M 100,69 h1 M 101,69 h1 M 49,70 h1 M 50,70 h1 M 51,70 h1 M 52,70 h1 M 53,70 h1 M 54,70 h1 M 55,70 h1 M 56,70 h1 M 57,70 h1 M 58,70 h1 M 59,70 h1 M 60,70 h1 M 61,70 h1 M 62,70 h1 M 63,70 h1 M 64,70 h1 M 65,70 h1 M 66,70 h1 M 67,70 h1 M 68,70 h1 M 69,70 h1 M 70,70 h1 M 71,70 h1 M 72,70 h1 M 73,70 h1 M 74,70 h1 M 75,70 h1 M 76,70 h1 M 77,70 h1 M 78,70 h1 M 97,70 h1 M 98,70 h1 M 99,70 h1 M 100,70 h1 M 101,70 h1 M 49,71 h1 M 50,71 h1 M 51,71 h1 M 52,71 h1 M 53,71 h1 M 54,71 h1 M 55,71 h1 M 56,71 h1 M 57,71 h1 M 58,71 h1 M 59,71 h1 M 60,71 h1 M 61,71 h1 M 62,71 h1 M 63,71 h1 M 64,71 h1 M 65,71 h1 M 66,71 h1 M 67,71 h1 M 68,71 h1 M 69,71 h1 M 70,71 h1 M 71,71 h1 M 72,71 h1 M 73,71 h1 M 74,71 h1 M 75,71 h1 M 76,71 h1 M 77,71 h1 M 78,71 h1 M 97,71 h1 M 98,71 h1 M 99,71 h1 M 100,71 h1 M 101,71 h1 M 48,72 h1 M 49,72 h1 M 50,72 h1 M 51,72 h1 M 52,72 h1 M 53,72 h1 M 54,72 h1 M 55,72 h1 M 56,72 h1 M 57,72 h1 M 58,72 h1 M 59,72 h1 M 60,72 h1 M 61,72 h1 M 62,72 h1 M 63,72 h1 M 64,72 h1 M 65,72 h1 M 66,72 h1 M 67,72 h1 M 68,72 h1 M 69,72 h1 M 70,72 h1 M 71,72 h1 M 72,72 h1 M 73,72 h1 M 74,72 h1 M 75,72 h1 M 76,72 h1 M 77,72 h1 M 97,72 h1 M 98,72 h1 M 99,72 h1 M 100,72 h1 M 101,72 h1 M 47,73 h1 M 48,73 h1 M 49,73 h1 M 50,73 h1 M 51,73 h1 M 52,73 h1 M 53,73 h1 M 54,73 h1 M 55,73 h1 M 56,73 h1 M 57,73 h1 M 58,73 h1 M 59,73 h1 M 60,73 h1 M 61,73 h1 M 62,73 h1 M 63,73 h1 M 64,73 h1 M 65,73 h1 M 66,73 h1 M 67,73 h1 M 68,73 h1 M 69,73 h1 M 70,73 h1 M 71,73 h1 M 72,73 h1 M 73,73 h1 M 74,73 h1 M 75,73 h1 M 76,73 h1 M 77,73 h1 M 96,73 h1 M 97,73 h1 M 98,73 h1 M 99,73 h1 M 100,73 h1 M 101,73 h1 M 102,73 h1 M 46,74 h1 M 47,74 h1 M 48,74 h1 M 49,74 h1 M 50,74 h1 M 51,74 h1 M 52,74 h1 M 53,74 h1 M 54,74 h1 M 55,74 h1 M 56,74 h1 M 57,74 h1 M 58,74 h1 M 59,74 h1 M 60,74 h1 M 61,74 h1 M 62,74 h1 M 63,74 h1 M 64,74 h1 M 65,74 h1 M 66,74 h1 M 67,74 h1 M 68,74 h1 M 69,74 h1 M 70,74 h1 M 71,74 h1 M 72,74 h1 M 73,74 h1 M 74,74 h1 M 75,74 h1 M 76,74 h1 M 77,74 h1 M 96,74 h1 M 97,74 h1 M 98,74 h1 M 99,74 h1 M 100,74 h1 M 101,74 h1 M 102,74 h1 M 44,75 h1 M 45,75 h1 M 46,75 h1 M 47,75 h1 M 48,75 h1 M 49,75 h1 M 50,75 h1 M 51,75 h1 M 52,75 h1 M 53,75 h1 M 54,75 h1 M 55,75 h1 M 56,75 h1 M 57,75 h1 M 58,75 h1 M 59,75 h1 M 60,75 h1 M 61,75 h1 M 62,75 h1 M 63,75 h1 M 64,75 h1 M 65,75 h1 M 66,75 h1 M 67,75 h1 M 68,75 h1 M 69,75 h1 M 70,75 h1 M 71,75 h1 M 72,75 h1 M 73,75 h1 M 74,75 h1 M 75,75 h1 M 76,75 h1 M 96,75 h1 M 97,75 h1 M 98,75 h1 M 99,75 h1 M 100,75 h1 M 101,75 h1 M 102,75 h1 M 43,76 h1 M 44,76 h1 M 45,76 h1 M 46,76 h1 M 47,76 h1 M 48,76 h1 M 49,76 h1 M 50,76 h1 M 51,76 h1 M 52,76 h1 M 53,76 h1 M 54,76 h1 M 55,76 h1 M 56,76 h1 M 57,76 h1 M 58,76 h1 M 59,76 h1 M 60,76 h1 M 61,76 h1 M 62,76 h1 M 63,76 h1 M 64,76 h1 M 65,76 h1 M 66,76 h1 M 67,76 h1 M 68,76 h1 M 69,76 h1 M 70,76 h1 M 71,76 h1 M 72,76 h1 M 73,76 h1 M 74,76 h1 M 75,76 h1 M 76,76 h1 M 95,76 h1 M 96,76 h1 M 97,76 h1 M 98,76 h1 M 99,76 h1 M 100,76 h1 M 101,76 h1 M 102,76 h1 M 42,77 h1 M 43,77 h1 M 44,77 h1 M 45,77 h1 M 46,77 h1 M 47,77 h1 M 48,77 h1 M 49,77 h1 M 50,77 h1 M 51,77 h1 M 52,77 h1 M 53,77 h1 M 54,77 h1 M 55,77 h1 M 56,77 h1 M 57,77 h1 M 58,77 h1 M 59,77 h1 M 60,77 h1 M 61,77 h1 M 62,77 h1 M 63,77 h1 M 64,77 h1 M 65,77 h1 M 66,77 h1 M 67,77 h1 M 68,77 h1 M 69,77 h1 M 70,77 h1 M 71,77 h1 M 72,77 h1 M 73,77 h1 M 74,77 h1 M 75,77 h1 M 95,77 h1 M 96,77 h1 M 97,77 h1 M 98,77 h1 M 99,77 h1 M 100,77 h1 M 101,77 h1 M 102,77 h1 M 41,78 h1 M 42,78 h1 M 43,78 h1 M 44,78 h1 M 45,78 h1 M 46,78 h1 M 47,78 h1 M 48,78 h1 M 49,78 h1 M 50,78 h1 M 51,78 h1 M 52,78 h1 M 53,78 h1 M 54,78 h1 M 55,78 h1 M 56,78 h1 M 57,78 h1 M 58,78 h1 M 59,78 h1 M 60,78 h1 M 61,78 h1 M 62,78 h1 M 63,78 h1 M 64,78 h1 M 65,78 h1 M 66,78 h1 M 67,78 h1 M 68,78 h1 M 69,78 h1 M 70,78 h1 M 71,78 h1 M 72,78 h1 M 73,78 h1 M 74,78 h1 M 95,78 h1 M 96,78 h1 M 97,78 h1 M 98,78 h1 M 99,78 h1 M 100,78 h1 M 101,78 h1 M 102,78 h1 M 41,79 h1 M 42,79 h1 M 43,79 h1 M 44,79 h1 M 45,79 h1 M 46,79 h1 M 47,79 h1 M 48,79 h1 M 49,79 h1 M 50,79 h1 M 51,79 h1 M 52,79 h1 M 53,79 h1 M 54,79 h1 M 55,79 h1 M 56,79 h1 M 57,79 h1 M 58,79 h1 M 59,79 h1 M 60,79 h1 M 61,79 h1 M 62,79 h1 M 63,79 h1 M 64,79 h1 M 65,79 h1 M 66,79 h1 M 67,79 h1 M 68,79 h1 M 69,79 h1 M 70,79 h1 M 71,79 h1 M 72,79 h1 M 73,79 h1 M 74,79 h1 M 94,79 h1 M 95,79 h1 M 96,79 h1 M 97,79 h1 M 98,79 h1 M 99,79 h1 M 100,79 h1 M 101,79 h1 M 102,79 h1 M 39,80 h1 M 40,80 h1 M 41,80 h1 M 42,80 h1 M 43,80 h1 M 44,80 h1 M 45,80 h1 M 46,80 h1 M 47,80 h1 M 48,80 h1 M 49,80 h1 M 50,80 h1 M 51,80 h1 M 52,80 h1 M 53,80 h1 M 54,80 h1 M 55,80 h1 M 56,80 h1 M 57,80 h1 M 58,80 h1 M 59,80 h1 M 60,80 h1 M 61,80 h1 M 62,80 h1 M 63,80 h1 M 64,80 h1 M 65,80 h1 M 66,80 h1 M 67,80 h1 M 68,80 h1 M 69,80 h1 M 70,80 h1 M 71,80 h1 M 72,80 h1 M 73,80 h1 M 93,80 h1 M 94,80 h1 M 95,80 h1 M 96,80 h1 M 97,80 h1 M 98,80 h1 M 99,80 h1 M 100,80 h1 M 101,80 h1 M 102,80 h1 M 39,81 h1 M 40,81 h1 M 41,81 h1 M 42,81 h1 M 43,81 h1 M 44,81 h1 M 45,81 h1 M 46,81 h1 M 47,81 h1 M 48,81 h1 M 49,81 h1 M 50,81 h1 M 51,81 h1 M 52,81 h1 M 53,81 h1 M 54,81 h1 M 55,81 h1 M 56,81 h1 M 57,81 h1 M 58,81 h1 M 59,81 h1 M 60,81 h1 M 61,81 h1 M 62,81 h1 M 63,81 h1 M 64,81 h1 M 65,81 h1 M 66,81 h1 M 67,81 h1 M 68,81 h1 M 69,81 h1 M 70,81 h1 M 71,81 h1 M 72,81 h1 M 94,81 h1 M 95,81 h1 M 96,81 h1 M 97,81 h1 M 98,81 h1 M 99,81 h1 M 100,81 h1 M 101,81 h1 M 102,81 h1 M 37,82 h1 M 38,82 h1 M 39,82 h1 M 40,82 h1 M 41,82 h1 M 42,82 h1 M 43,82 h1 M 44,82 h1 M 45,82 h1 M 46,82 h1 M 47,82 h1 M 48,82 h1 M 49,82 h1 M 50,82 h1 M 51,82 h1 M 52,82 h1 M 53,82 h1 M 54,82 h1 M 55,82 h1 M 56,82 h1 M 57,82 h1 M 58,82 h1 M 59,82 h1 M 60,82 h1 M 61,82 h1 M 62,82 h1 M 63,82 h1 M 64,82 h1 M 65,82 h1 M 66,82 h1 M 67,82 h1 M 68,82 h1 M 69,82 h1 M 70,82 h1 M 71,82 h1 M 72,82 h1 M 93,82 h1 M 94,82 h1 M 95,82 h1 M 96,82 h1 M 97,82 h1 M 98,82 h1 M 99,82 h1 M 100,82 h1 M 101,82 h1 M 102,82 h1 M 36,83 h1 M 37,83 h1 M 38,83 h1 M 39,83 h1 M 40,83 h1 M 41,83 h1 M 42,83 h1 M 43,83 h1 M 44,83 h1 M 45,83 h1 M 46,83 h1 M 47,83 h1 M 48,83 h1 M 49,83 h1 M 50,83 h1 M 51,83 h1 M 52,83 h1 M 53,83 h1 M 54,83 h1 M 55,83 h1 M 56,83 h1 M 57,83 h1 M 58,83 h1 M 59,83 h1 M 60,83 h1 M 61,83 h1 M 62,83 h1 M 63,83 h1 M 64,83 h1 M 65,83 h1 M 66,83 h1 M 67,83 h1 M 68,83 h1 M 69,83 h1 M 70,83 h1 M 71,83 h1 M 92,83 h1 M 93,83 h1 M 94,83 h1 M 95,83 h1 M 96,83 h1 M 97,83 h1 M 98,83 h1 M 99,83 h1 M 100,83 h1 M 101,83 h1 M 102,83 h1 M 35,84 h1 M 36,84 h1 M 37,84 h1 M 38,84 h1 M 39,84 h1 M 40,84 h1 M 41,84 h1 M 42,84 h1 M 43,84 h1 M 44,84 h1 M 45,84 h1 M 46,84 h1 M 47,84 h1 M 48,84 h1 M 49,84 h1 M 50,84 h1 M 51,84 h1 M 52,84 h1 M 53,84 h1 M 54,84 h1 M 55,84 h1 M 56,84 h1 M 57,84 h1 M 58,84 h1 M 59,84 h1 M 60,84 h1 M 61,84 h1 M 62,84 h1 M 63,84 h1 M 64,84 h1 M 65,84 h1 M 66,84 h1 M 67,84 h1 M 68,84 h1 M 69,84 h1 M 70,84 h1 M 92,84 h1 M 93,84 h1 M 94,84 h1 M 95,84 h1 M 96,84 h1 M 97,84 h1 M 98,84 h1 M 99,84 h1 M 100,84 h1 M 101,84 h1 M 34,85 h1 M 35,85 h1 M 36,85 h1 M 37,85 h1 M 38,85 h1 M 39,85 h1 M 40,85 h1 M 41,85 h1 M 42,85 h1 M 43,85 h1 M 44,85 h1 M 45,85 h1 M 46,85 h1 M 47,85 h1 M 48,85 h1 M 49,85 h1 M 50,85 h1 M 51,85 h1 M 52,85 h1 M 53,85 h1 M 54,85 h1 M 55,85 h1 M 56,85 h1 M 57,85 h1 M 58,85 h1 M 59,85 h1 M 60,85 h1 M 61,85 h1 M 62,85 h1 M 63,85 h1 M 64,85 h1 M 65,85 h1 M 66,85 h1 M 67,85 h1 M 68,85 h1 M 69,85 h1 M 91,85 h1 M 92,85 h1 M 93,85 h1 M 94,85 h1 M 95,85 h1 M 96,85 h1 M 97,85 h1 M 98,85 h1 M 99,85 h1 M 100,85 h1 M 101,85 h1 M 33,86 h1 M 34,86 h1 M 35,86 h1 M 36,86 h1 M 37,86 h1 M 38,86 h1 M 39,86 h1 M 40,86 h1 M 41,86 h1 M 42,86 h1 M 43,86 h1 M 44,86 h1 M 45,86 h1 M 46,86 h1 M 47,86 h1 M 48,86 h1 M 49,86 h1 M 50,86 h1 M 51,86 h1 M 52,86 h1 M 53,86 h1 M 54,86 h1 M 55,86 h1 M 56,86 h1 M 57,86 h1 M 58,86 h1 M 59,86 h1 M 60,86 h1 M 61,86 h1 M 62,86 h1 M 63,86 h1 M 64,86 h1 M 65,86 h1 M 66,86 h1 M 67,86 h1 M 68,86 h1 M 69,86 h1 M 90,86 h1 M 91,86 h1 M 92,86 h1 M 93,86 h1 M 94,86 h1 M 95,86 h1 M 96,86 h1 M 97,86 h1 M 98,86 h1 M 99,86 h1 M 100,86 h1 M 101,86 h1 M 32,87 h1 M 33,87 h1 M 34,87 h1 M 35,87 h1 M 36,87 h1 M 37,87 h1 M 38,87 h1 M 39,87 h1 M 40,87 h1 M 41,87 h1 M 42,87 h1 M 43,87 h1 M 44,87 h1 M 45,87 h1 M 46,87 h1 M 47,87 h1 M 48,87 h1 M 49,87 h1 M 50,87 h1 M 51,87 h1 M 52,87 h1 M 53,87 h1 M 54,87 h1 M 55,87 h1 M 56,87 h1 M 57,87 h1 M 58,87 h1 M 59,87 h1 M 60,87 h1 M 61,87 h1 M 62,87 h1 M 63,87 h1 M 64,87 h1 M 65,87 h1 M 66,87 h1 M 67,87 h1 M 68,87 h1 M 90,87 h1 M 91,87 h1 M 92,87 h1 M 93,87 h1 M 94,87 h1 M 95,87 h1 M 96,87 h1 M 97,87 h1 M 98,87 h1 M 99,87 h1 M 100,87 h1 M 101,87 h1 M 31,88 h1 M 32,88 h1 M 33,88 h1 M 34,88 h1 M 35,88 h1 M 36,88 h1 M 37,88 h1 M 38,88 h1 M 39,88 h1 M 40,88 h1 M 41,88 h1 M 42,88 h1 M 43,88 h1 M 44,88 h1 M 45,88 h1 M 46,88 h1 M 47,88 h1 M 48,88 h1 M 49,88 h1 M 50,88 h1 M 51,88 h1 M 52,88 h1 M 53,88 h1 M 54,88 h1 M 55,88 h1 M 56,88 h1 M 57,88 h1 M 58,88 h1 M 59,88 h1 M 60,88 h1 M 61,88 h1 M 62,88 h1 M 63,88 h1 M 64,88 h1 M 65,88 h1 M 66,88 h1 M 67,88 h1 M 89,88 h1 M 90,88 h1 M 91,88 h1 M 92,88 h1 M 93,88 h1 M 94,88 h1 M 95,88 h1 M 96,88 h1 M 97,88 h1 M 98,88 h1 M 99,88 h1 M 100,88 h1 M 101,88 h1 M 30,89 h1 M 31,89 h1 M 32,89 h1 M 33,89 h1 M 34,89 h1 M 35,89 h1 M 36,89 h1 M 37,89 h1 M 38,89 h1 M 39,89 h1 M 40,89 h1 M 41,89 h1 M 42,89 h1 M 43,89 h1 M 44,89 h1 M 45,89 h1 M 46,89 h1 M 47,89 h1 M 48,89 h1 M 49,89 h1 M 50,89 h1 M 51,89 h1 M 52,89 h1 M 53,89 h1 M 54,89 h1 M 55,89 h1 M 56,89 h1 M 57,89 h1 M 58,89 h1 M 59,89 h1 M 60,89 h1 M 61,89 h1 M 62,89 h1 M 63,89 h1 M 64,89 h1 M 65,89 h1 M 66,89 h1 M 88,89 h1 M 89,89 h1 M 90,89 h1 M 91,89 h1 M 92,89 h1 M 93,89 h1 M 94,89 h1 M 95,89 h1 M 96,89 h1 M 97,89 h1 M 98,89 h1 M 99,89 h1 M 100,89 h1 M 101,89 h1 M 29,90 h1 M 30,90 h1 M 31,90 h1 M 32,90 h1 M 33,90 h1 M 34,90 h1 M 35,90 h1 M 36,90 h1 M 37,90 h1 M 38,90 h1 M 39,90 h1 M 40,90 h1 M 41,90 h1 M 42,90 h1 M 43,90 h1 M 44,90 h1 M 45,90 h1 M 46,90 h1 M 47,90 h1 M 48,90 h1 M 49,90 h1 M 50,90 h1 M 51,90 h1 M 52,90 h1 M 53,90 h1 M 54,90 h1 M 55,90 h1 M 56,90 h1 M 57,90 h1 M 58,90 h1 M 59,90 h1 M 60,90 h1 M 61,90 h1 M 62,90 h1 M 63,90 h1 M 64,90 h1 M 65,90 h1 M 88,90 h1 M 89,90 h1 M 90,90 h1 M 91,90 h1 M 92,90 h1 M 93,90 h1 M 94,90 h1 M 95,90 h1 M 96,90 h1 M 97,90 h1 M 98,90 h1 M 99,90 h1 M 100,90 h1 M 101,90 h1 M 28,91 h1 M 29,91 h1 M 30,91 h1 M 31,91 h1 M 32,91 h1 M 33,91 h1 M 34,91 h1 M 35,91 h1 M 36,91 h1 M 37,91 h1 M 38,91 h1 M 39,91 h1 M 40,91 h1 M 41,91 h1 M 42,91 h1 M 43,91 h1 M 44,91 h1 M 45,91 h1 M 46,91 h1 M 47,91 h1 M 48,91 h1 M 49,91 h1 M 50,91 h1 M 51,91 h1 M 52,91 h1 M 53,91 h1 M 54,91 h1 M 55,91 h1 M 56,91 h1 M 57,91 h1 M 58,91 h1 M 59,91 h1 M 60,91 h1 M 61,91 h1 M 62,91 h1 M 63,91 h1 M 64,91 h1 M 87,91 h1 M 88,91 h1 M 89,91 h1 M 90,91 h1 M 91,91 h1 M 92,91 h1 M 93,91 h1 M 94,91 h1 M 95,91 h1 M 96,91 h1 M 97,91 h1 M 98,91 h1 M 99,91 h1 M 100,91 h1 M 27,92 h1 M 28,92 h1 M 29,92 h1 M 30,92 h1 M 31,92 h1 M 32,92 h1 M 33,92 h1 M 34,92 h1 M 35,92 h1 M 36,92 h1 M 37,92 h1 M 38,92 h1 M 39,92 h1 M 40,92 h1 M 41,92 h1 M 42,92 h1 M 43,92 h1 M 44,92 h1 M 45,92 h1 M 46,92 h1 M 47,92 h1 M 48,92 h1 M 49,92 h1 M 50,92 h1 M 51,92 h1 M 52,92 h1 M 53,92 h1 M 54,92 h1 M 55,92 h1 M 56,92 h1 M 57,92 h1 M 58,92 h1 M 59,92 h1 M 60,92 h1 M 61,92 h1 M 62,92 h1 M 63,92 h1 M 86,92 h1 M 87,92 h1 M 88,92 h1 M 89,92 h1 M 90,92 h1 M 91,92 h1 M 92,92 h1 M 93,92 h1 M 94,92 h1 M 95,92 h1 M 96,92 h1 M 97,92 h1 M 98,92 h1 M 99,92 h1 M 100,92 h1 M 26,93 h1 M 27,93 h1 M 28,93 h1 M 29,93 h1 M 30,93 h1 M 31,93 h1 M 32,93 h1 M 33,93 h1 M 34,93 h1 M 35,93 h1 M 36,93 h1 M 37,93 h1 M 38,93 h1 M 39,93 h1 M 40,93 h1 M 41,93 h1 M 42,93 h1 M 43,93 h1 M 44,93 h1 M 45,93 h1 M 46,93 h1 M 47,93 h1 M 48,93 h1 M 49,93 h1 M 50,93 h1 M 51,93 h1 M 52,93 h1 M 53,93 h1 M 54,93 h1 M 55,93 h1 M 56,93 h1 M 57,93 h1 M 58,93 h1 M 59,93 h1 M 60,93 h1 M 61,93 h1 M 62,93 h1 M 63,93 h1 M 85,93 h1 M 86,93 h1 M 87,93 h1 M 88,93 h1 M 89,93 h1 M 90,93 h1 M 91,93 h1 M 92,93 h1 M 93,93 h1 M 94,93 h1 M 95,93 h1 M 96,93 h1 M 97,93 h1 M 98,93 h1 M 99,93 h1 M 100,93 h1 M 25,94 h1 M 26,94 h1 M 27,94 h1 M 28,94 h1 M 29,94 h1 M 30,94 h1 M 31,94 h1 M 32,94 h1 M 33,94 h1 M 34,94 h1 M 35,94 h1 M 36,94 h1 M 37,94 h1 M 38,94 h1 M 39,94 h1 M 40,94 h1 M 41,94 h1 M 42,94 h1 M 43,94 h1 M 44,94 h1 M 45,94 h1 M 46,94 h1 M 47,94 h1 M 48,94 h1 M 49,94 h1 M 50,94 h1 M 51,94 h1 M 52,94 h1 M 53,94 h1 M 54,94 h1 M 55,94 h1 M 56,94 h1 M 57,94 h1 M 58,94 h1 M 59,94 h1 M 60,94 h1 M 61,94 h1 M 62,94 h1 M 84,94 h1 M 85,94 h1 M 86,94 h1 M 87,94 h1 M 88,94 h1 M 89,94 h1 M 90,94 h1 M 91,94 h1 M 92,94 h1 M 93,94 h1 M 94,94 h1 M 95,94 h1 M 96,94 h1 M 97,94 h1 M 98,94 h1 M 99,94 h1 M 25,95 h1 M 26,95 h1 M 27,95 h1 M 28,95 h1 M 29,95 h1 M 30,95 h1 M 31,95 h1 M 32,95 h1 M 33,95 h1 M 34,95 h1 M 35,95 h1 M 36,95 h1 M 37,95 h1 M 38,95 h1 M 39,95 h1 M 40,95 h1 M 41,95 h1 M 42,95 h1 M 43,95 h1 M 44,95 h1 M 45,95 h1 M 46,95 h1 M 47,95 h1 M 48,95 h1 M 49,95 h1 M 50,95 h1 M 51,95 h1 M 52,95 h1 M 53,95 h1 M 54,95 h1 M 55,95 h1 M 56,95 h1 M 57,95 h1 M 58,95 h1 M 59,95 h1 M 60,95 h1 M 61,95 h1 M 83,95 h1 M 84,95 h1 M 85,95 h1 M 86,95 h1 M 87,95 h1 M 88,95 h1 M 89,95 h1 M 90,95 h1 M 91,95 h1 M 92,95 h1 M 93,95 h1 M 94,95 h1 M 95,95 h1 M 96,95 h1 M 97,95 h1 M 98,95 h1 M 99,95 h1 M 23,96 h1 M 24,96 h1 M 25,96 h1 M 26,96 h1 M 27,96 h1 M 28,96 h1 M 29,96 h1 M 30,96 h1 M 31,96 h1 M 32,96 h1 M 33,96 h1 M 34,96 h1 M 35,96 h1 M 36,96 h1 M 37,96 h1 M 38,96 h1 M 39,96 h1 M 40,96 h1 M 41,96 h1 M 42,96 h1 M 43,96 h1 M 44,96 h1 M 45,96 h1 M 46,96 h1 M 47,96 h1 M 48,96 h1 M 49,96 h1 M 50,96 h1 M 51,96 h1 M 52,96 h1 M 53,96 h1 M 54,96 h1 M 55,96 h1 M 56,96 h1 M 57,96 h1 M 58,96 h1 M 59,96 h1 M 60,96 h1 M 83,96 h1 M 84,96 h1 M 85,96 h1 M 86,96 h1 M 87,96 h1 M 88,96 h1 M 89,96 h1 M 90,96 h1 M 91,96 h1 M 92,96 h1 M 93,96 h1 M 94,96 h1 M 95,96 h1 M 96,96 h1 M 97,96 h1 M 98,96 h1 M 99,96 h1 M 22,97 h1 M 23,97 h1 M 24,97 h1 M 25,97 h1 M 26,97 h1 M 27,97 h1 M 28,97 h1 M 29,97 h1 M 30,97 h1 M 31,97 h1 M 32,97 h1 M 33,97 h1 M 34,97 h1 M 35,97 h1 M 36,97 h1 M 37,97 h1 M 38,97 h1 M 39,97 h1 M 40,97 h1 M 41,97 h1 M 42,97 h1 M 43,97 h1 M 44,97 h1 M 45,97 h1 M 46,97 h1 M 47,97 h1 M 48,97 h1 M 49,97 h1 M 50,97 h1 M 51,97 h1 M 52,97 h1 M 53,97 h1 M 54,97 h1 M 55,97 h1 M 56,97 h1 M 57,97 h1 M 58,97 h1 M 59,97 h1 M 60,97 h1 M 82,97 h1 M 83,97 h1 M 84,97 h1 M 85,97 h1 M 86,97 h1 M 87,97 h1 M 88,97 h1 M 89,97 h1 M 90,97 h1 M 91,97 h1 M 92,97 h1 M 93,97 h1 M 94,97 h1 M 95,97 h1 M 96,97 h1 M 97,97 h1 M 98,97 h1 M 99,97 h1 M 22,98 h1 M 23,98 h1 M 24,98 h1 M 25,98 h1 M 26,98 h1 M 27,98 h1 M 28,98 h1 M 29,98 h1 M 30,98 h1 M 31,98 h1 M 32,98 h1 M 33,98 h1 M 34,98 h1 M 35,98 h1 M 36,98 h1 M 37,98 h1 M 38,98 h1 M 39,98 h1 M 40,98 h1 M 41,98 h1 M 42,98 h1 M 43,98 h1 M 44,98 h1 M 45,98 h1 M 46,98 h1 M 47,98 h1 M 48,98 h1 M 49,98 h1 M 50,98 h1 M 51,98 h1 M 52,98 h1 M 53,98 h1 M 54,98 h1 M 55,98 h1 M 56,98 h1 M 57,98 h1 M 58,98 h1 M 59,98 h1 M 81,98 h1 M 82,98 h1 M 83,98 h1 M 84,98 h1 M 85,98 h1 M 86,98 h1 M 87,98 h1 M 88,98 h1 M 89,98 h1 M 90,98 h1 M 91,98 h1 M 92,98 h1 M 93,98 h1 M 94,98 h1 M 95,98 h1 M 96,98 h1 M 97,98 h1 M 98,98 h1 M 21,99 h1 M 22,99 h1 M 23,99 h1 M 24,99 h1 M 25,99 h1 M 26,99 h1 M 27,99 h1 M 28,99 h1 M 29,99 h1 M 30,99 h1 M 31,99 h1 M 32,99 h1 M 33,99 h1 M 34,99 h1 M 35,99 h1 M 36,99 h1 M 37,99 h1 M 38,99 h1 M 39,99 h1 M 40,99 h1 M 41,99 h1 M 42,99 h1 M 43,99 h1 M 44,99 h1 M 45,99 h1 M 46,99 h1 M 47,99 h1 M 48,99 h1 M 49,99 h1 M 50,99 h1 M 51,99 h1 M 52,99 h1 M 53,99 h1 M 54,99 h1 M 55,99 h1 M 56,99 h1 M 57,99 h1 M 58,99 h1 M 80,99 h1 M 81,99 h1 M 82,99 h1 M 83,99 h1 M 84,99 h1 M 85,99 h1 M 86,99 h1 M 87,99 h1 M 88,99 h1 M 89,99 h1 M 90,99 h1 M 91,99 h1 M 92,99 h1 M 93,99 h1 M 94,99 h1 M 95,99 h1 M 96,99 h1 M 97,99 h1 M 98,99 h1 M 20,100 h1 M 21,100 h1 M 22,100 h1 M 23,100 h1 M 24,100 h1 M 25,100 h1 M 26,100 h1 M 27,100 h1 M 28,100 h1 M 29,100 h1 M 30,100 h1 M 31,100 h1 M 32,100 h1 M 33,100 h1 M 34,100 h1 M 35,100 h1 M 36,100 h1 M 37,100 h1 M 38,100 h1 M 39,100 h1 M 40,100 h1 M 41,100 h1 M 42,100 h1 M 43,100 h1 M 44,100 h1 M 45,100 h1 M 46,100 h1 M 47,100 h1 M 48,100 h1 M 49,100 h1 M 50,100 h1 M 51,100 h1 M 52,100 h1 M 53,100 h1 M 54,100 h1 M 55,100 h1 M 56,100 h1 M 57,100 h1 M 79,100 h1 M 80,100 h1 M 81,100 h1 M 82,100 h1 M 83,100 h1 M 84,100 h1 M 85,100 h1 M 86,100 h1 M 87,100 h1 M 88,100 h1 M 89,100 h1 M 90,100 h1 M 91,100 h1 M 92,100 h1 M 93,100 h1 M 94,100 h1 M 95,100 h1 M 96,100 h1 M 97,100 h1 M 98,100 h1 M 19,101 h1 M 20,101 h1 M 21,101 h1 M 22,101 h1 M 23,101 h1 M 24,101 h1 M 25,101 h1 M 26,101 h1 M 27,101 h1 M 28,101 h1 M 29,101 h1 M 30,101 h1 M 31,101 h1 M 32,101 h1 M 33,101 h1 M 34,101 h1 M 35,101 h1 M 36,101 h1 M 37,101 h1 M 38,101 h1 M 39,101 h1 M 40,101 h1 M 41,101 h1 M 42,101 h1 M 43,101 h1 M 44,101 h1 M 45,101 h1 M 46,101 h1 M 47,101 h1 M 48,101 h1 M 49,101 h1 M 50,101 h1 M 51,101 h1 M 52,101 h1 M 53,101 h1 M 54,101 h1 M 55,101 h1 M 56,101 h1 M 57,101 h1 M 78,101 h1 M 79,101 h1 M 80,101 h1 M 81,101 h1 M 82,101 h1 M 83,101 h1 M 84,101 h1 M 85,101 h1 M 86,101 h1 M 87,101 h1 M 88,101 h1 M 89,101 h1 M 90,101 h1 M 91,101 h1 M 92,101 h1 M 93,101 h1 M 94,101 h1 M 95,101 h1 M 96,101 h1 M 97,101 h1 M 18,102 h1 M 19,102 h1 M 20,102 h1 M 21,102 h1 M 22,102 h1 M 23,102 h1 M 24,102 h1 M 25,102 h1 M 26,102 h1 M 27,102 h1 M 28,102 h1 M 29,102 h1 M 30,102 h1 M 31,102 h1 M 32,102 h1 M 33,102 h1 M 34,102 h1 M 35,102 h1 M 36,102 h1 M 37,102 h1 M 38,102 h1 M 39,102 h1 M 40,102 h1 M 41,102 h1 M 42,102 h1 M 43,102 h1 M 44,102 h1 M 45,102 h1 M 46,102 h1 M 47,102 h1 M 48,102 h1 M 49,102 h1 M 50,102 h1 M 51,102 h1 M 52,102 h1 M 54,102 h1 M 55,102 h1 M 77,102 h1 M 78,102 h1 M 79,102 h1 M 80,102 h1 M 81,102 h1 M 82,102 h1 M 83,102 h1 M 84,102 h1 M 85,102 h1 M 86,102 h1 M 87,102 h1 M 88,102 h1 M 89,102 h1 M 90,102 h1 M 91,102 h1 M 92,102 h1 M 93,102 h1 M 94,102 h1 M 95,102 h1 M 96,102 h1 M 18,103 h1 M 19,103 h1 M 20,103 h1 M 21,103 h1 M 22,103 h1 M 23,103 h1 M 24,103 h1 M 25,103 h1 M 26,103 h1 M 27,103 h1 M 28,103 h1 M 29,103 h1 M 30,103 h1 M 31,103 h1 M 32,103 h1 M 33,103 h1 M 34,103 h1 M 35,103 h1 M 36,103 h1 M 37,103 h1 M 38,103 h1 M 39,103 h1 M 40,103 h1 M 41,103 h1 M 42,103 h1 M 43,103 h1 M 44,103 h1 M 45,103 h1 M 46,103 h1 M 47,103 h1 M 48,103 h1 M 49,103 h1 M 50,103 h1 M 51,103 h1 M 52,103 h1 M 53,103 h1 M 54,103 h1 M 55,103 h1 M 77,103 h1 M 78,103 h1 M 79,103 h1 M 80,103 h1 M 81,103 h1 M 82,103 h1 M 83,103 h1 M 84,103 h1 M 85,103 h1 M 86,103 h1 M 87,103 h1 M 88,103 h1 M 89,103 h1 M 90,103 h1 M 91,103 h1 M 92,103 h1 M 93,103 h1 M 94,103 h1 M 95,103 h1 M 96,103 h1 M 17,104 h1 M 18,104 h1 M 19,104 h1 M 20,104 h1 M 21,104 h1 M 22,104 h1 M 23,104 h1 M 24,104 h1 M 25,104 h1 M 26,104 h1 M 27,104 h1 M 28,104 h1 M 29,104 h1 M 30,104 h1 M 31,104 h1 M 32,104 h1 M 33,104 h1 M 34,104 h1 M 35,104 h1 M 36,104 h1 M 37,104 h1 M 38,104 h1 M 39,104 h1 M 40,104 h1 M 41,104 h1 M 42,104 h1 M 43,104 h1 M 44,104 h1 M 45,104 h1 M 46,104 h1 M 47,104 h1 M 48,104 h1 M 49,104 h1 M 50,104 h1 M 51,104 h1 M 52,104 h1 M 53,104 h1 M 54,104 h1 M 76,104 h1 M 77,104 h1 M 78,104 h1 M 79,104 h1 M 80,104 h1 M 81,104 h1 M 82,104 h1 M 83,104 h1 M 84,104 h1 M 85,104 h1 M 86,104 h1 M 87,104 h1 M 88,104 h1 M 89,104 h1 M 90,104 h1 M 91,104 h1 M 92,104 h1 M 93,104 h1 M 94,104 h1 M 95,104 h1 M 17,105 h1 M 18,105 h1 M 19,105 h1 M 20,105 h1 M 21,105 h1 M 22,105 h1 M 23,105 h1 M 24,105 h1 M 25,105 h1 M 26,105 h1 M 27,105 h1 M 28,105 h1 M 29,105 h1 M 30,105 h1 M 31,105 h1 M 32,105 h1 M 33,105 h1 M 34,105 h1 M 35,105 h1 M 36,105 h1 M 37,105 h1 M 38,105 h1 M 39,105 h1 M 40,105 h1 M 41,105 h1 M 42,105 h1 M 43,105 h1 M 44,105 h1 M 45,105 h1 M 46,105 h1 M 47,105 h1 M 48,105 h1 M 49,105 h1 M 50,105 h1 M 51,105 h1 M 52,105 h1 M 53,105 h1 M 75,105 h1 M 76,105 h1 M 77,105 h1 M 78,105 h1 M 79,105 h1 M 80,105 h1 M 81,105 h1 M 82,105 h1 M 83,105 h1 M 84,105 h1 M 85,105 h1 M 86,105 h1 M 87,105 h1 M 88,105 h1 M 89,105 h1 M 90,105 h1 M 91,105 h1 M 92,105 h1 M 93,105 h1 M 94,105 h1 M 16,106 h1 M 17,106 h1 M 18,106 h1 M 19,106 h1 M 20,106 h1 M 21,106 h1 M 22,106 h1 M 23,106 h1 M 24,106 h1 M 25,106 h1 M 26,106 h1 M 27,106 h1 M 28,106 h1 M 29,106 h1 M 30,106 h1 M 31,106 h1 M 32,106 h1 M 33,106 h1 M 34,106 h1 M 35,106 h1 M 36,106 h1 M 37,106 h1 M 38,106 h1 M 39,106 h1 M 40,106 h1 M 41,106 h1 M 42,106 h1 M 43,106 h1 M 44,106 h1 M 45,106 h1 M 46,106 h1 M 47,106 h1 M 48,106 h1 M 49,106 h1 M 50,106 h1 M 51,106 h1 M 52,106 h1 M 74,106 h1 M 75,106 h1 M 76,106 h1 M 77,106 h1 M 78,106 h1 M 79,106 h1 M 80,106 h1 M 81,106 h1 M 82,106 h1 M 83,106 h1 M 84,106 h1 M 85,106 h1 M 86,106 h1 M 87,106 h1 M 88,106 h1 M 89,106 h1 M 90,106 h1 M 91,106 h1 M 92,106 h1 M 93,106 h1 M 94,106 h1 M 15,107 h1 M 16,107 h1 M 17,107 h1 M 18,107 h1 M 19,107 h1 M 20,107 h1 M 21,107 h1 M 22,107 h1 M 23,107 h1 M 24,107 h1 M 25,107 h1 M 26,107 h1 M 27,107 h1 M 28,107 h1 M 29,107 h1 M 30,107 h1 M 31,107 h1 M 32,107 h1 M 33,107 h1 M 34,107 h1 M 35,107 h1 M 36,107 h1 M 37,107 h1 M 38,107 h1 M 39,107 h1 M 40,107 h1 M 41,107 h1 M 42,107 h1 M 43,107 h1 M 44,107 h1 M 45,107 h1 M 46,107 h1 M 47,107 h1 M 48,107 h1 M 49,107 h1 M 50,107 h1 M 51,107 h1 M 52,107 h1 M 73,107 h1 M 74,107 h1 M 75,107 h1 M 76,107 h1 M 77,107 h1 M 78,107 h1 M 79,107 h1 M 80,107 h1 M 81,107 h1 M 82,107 h1 M 83,107 h1 M 84,107 h1 M 85,107 h1 M 86,107 h1 M 87,107 h1 M 88,107 h1 M 89,107 h1 M 90,107 h1 M 91,107 h1 M 92,107 h1 M 93,107 h1 M 14,108 h1 M 15,108 h1 M 16,108 h1 M 17,108 h1 M 18,108 h1 M 19,108 h1 M 20,108 h1 M 21,108 h1 M 22,108 h1 M 23,108 h1 M 24,108 h1 M 25,108 h1 M 26,108 h1 M 27,108 h1 M 28,108 h1 M 29,108 h1 M 30,108 h1 M 31,108 h1 M 32,108 h1 M 33,108 h1 M 34,108 h1 M 35,108 h1 M 36,108 h1 M 37,108 h1 M 38,108 h1 M 39,108 h1 M 40,108 h1 M 41,108 h1 M 42,108 h1 M 43,108 h1 M 44,108 h1 M 45,108 h1 M 46,108 h1 M 47,108 h1 M 48,108 h1 M 49,108 h1 M 50,108 h1 M 51,108 h1 M 72,108 h1 M 73,108 h1 M 74,108 h1 M 75,108 h1 M 76,108 h1 M 77,108 h1 M 78,108 h1 M 79,108 h1 M 80,108 h1 M 81,108 h1 M 82,108 h1 M 83,108 h1 M 84,108 h1 M 85,108 h1 M 86,108 h1 M 87,108 h1 M 88,108 h1 M 89,108 h1 M 90,108 h1 M 91,108 h1 M 92,108 h1 M 14,109 h1 M 15,109 h1 M 16,109 h1 M 17,109 h1 M 18,109 h1 M 19,109 h1 M 20,109 h1 M 21,109 h1 M 22,109 h1 M 23,109 h1 M 24,109 h1 M 25,109 h1 M 26,109 h1 M 27,109 h1 M 28,109 h1 M 29,109 h1 M 30,109 h1 M 31,109 h1 M 32,109 h1 M 33,109 h1 M 34,109 h1 M 35,109 h1 M 36,109 h1 M 37,109 h1 M 38,109 h1 M 39,109 h1 M 40,109 h1 M 41,109 h1 M 42,109 h1 M 43,109 h1 M 44,109 h1 M 45,109 h1 M 46,109 h1 M 47,109 h1 M 48,109 h1 M 49,109 h1 M 50,109 h1 M 72,109 h1 M 73,109 h1 M 74,109 h1 M 75,109 h1 M 76,109 h1 M 77,109 h1 M 78,109 h1 M 79,109 h1 M 80,109 h1 M 81,109 h1 M 82,109 h1 M 83,109 h1 M 84,109 h1 M 85,109 h1 M 86,109 h1 M 87,109 h1 M 88,109 h1 M 89,109 h1 M 90,109 h1 M 91,109 h1 M 106,109 h1 M 13,110 h1 M 14,110 h1 M 15,110 h1 M 16,110 h1 M 17,110 h1 M 18,110 h1 M 19,110 h1 M 20,110 h1 M 21,110 h1 M 22,110 h1 M 23,110 h1 M 24,110 h1 M 25,110 h1 M 26,110 h1 M 27,110 h1 M 28,110 h1 M 29,110 h1 M 30,110 h1 M 31,110 h1 M 32,110 h1 M 33,110 h1 M 34,110 h1 M 35,110 h1 M 36,110 h1 M 37,110 h1 M 38,110 h1 M 39,110 h1 M 40,110 h1 M 41,110 h1 M 42,110 h1 M 43,110 h1 M 44,110 h1 M 45,110 h1 M 46,110 h1 M 47,110 h1 M 48,110 h1 M 49,110 h1 M 71,110 h1 M 72,110 h1 M 73,110 h1 M 74,110 h1 M 75,110 h1 M 76,110 h1 M 77,110 h1 M 78,110 h1 M 79,110 h1 M 80,110 h1 M 81,110 h1 M 82,110 h1 M 83,110 h1 M 84,110 h1 M 85,110 h1 M 86,110 h1 M 87,110 h1 M 88,110 h1 M 89,110 h1 M 90,110 h1 M 106,110 h1 M 107,110 h1 M 13,111 h1 M 14,111 h1 M 15,111 h1 M 16,111 h1 M 17,111 h1 M 18,111 h1 M 19,111 h1 M 20,111 h1 M 21,111 h1 M 22,111 h1 M 23,111 h1 M 24,111 h1 M 25,111 h1 M 26,111 h1 M 27,111 h1 M 28,111 h1 M 29,111 h1 M 30,111 h1 M 31,111 h1 M 32,111 h1 M 33,111 h1 M 34,111 h1 M 35,111 h1 M 36,111 h1 M 37,111 h1 M 38,111 h1 M 39,111 h1 M 40,111 h1 M 41,111 h1 M 42,111 h1 M 43,111 h1 M 44,111 h1 M 45,111 h1 M 46,111 h1 M 47,111 h1 M 48,111 h1 M 49,111 h1 M 70,111 h1 M 71,111 h1 M 72,111 h1 M 73,111 h1 M 74,111 h1 M 75,111 h1 M 76,111 h1 M 77,111 h1 M 78,111 h1 M 79,111 h1 M 80,111 h1 M 81,111 h1 M 82,111 h1 M 83,111 h1 M 84,111 h1 M 85,111 h1 M 86,111 h1 M 87,111 h1 M 88,111 h1 M 89,111 h1 M 90,111 h1 M 106,111 h1 M 107,111 h1 M 13,112 h1 M 14,112 h1 M 15,112 h1 M 16,112 h1 M 17,112 h1 M 18,112 h1 M 19,112 h1 M 20,112 h1 M 21,112 h1 M 22,112 h1 M 23,112 h1 M 24,112 h1 M 25,112 h1 M 26,112 h1 M 27,112 h1 M 28,112 h1 M 29,112 h1 M 30,112 h1 M 31,112 h1 M 32,112 h1 M 33,112 h1 M 34,112 h1 M 35,112 h1 M 36,112 h1 M 37,112 h1 M 38,112 h1 M 39,112 h1 M 40,112 h1 M 41,112 h1 M 42,112 h1 M 43,112 h1 M 44,112 h1 M 45,112 h1 M 46,112 h1 M 47,112 h1 M 48,112 h1 M 49,112 h1 M 70,112 h1 M 71,112 h1 M 72,112 h1 M 73,112 h1 M 74,112 h1 M 75,112 h1 M 76,112 h1 M 77,112 h1 M 78,112 h1 M 79,112 h1 M 80,112 h1 M 81,112 h1 M 82,112 h1 M 83,112 h1 M 84,112 h1 M 85,112 h1 M 86,112 h1 M 87,112 h1 M 88,112 h1 M 89,112 h1 M 106,112 h1 M 107,112 h1 M 108,112 h1 M 13,113 h1 M 14,113 h1 M 15,113 h1 M 16,113 h1 M 17,113 h1 M 18,113 h1 M 19,113 h1 M 20,113 h1 M 21,113 h1 M 22,113 h1 M 23,113 h1 M 24,113 h1 M 25,113 h1 M 26,113 h1 M 27,113 h1 M 28,113 h1 M 29,113 h1 M 30,113 h1 M 31,113 h1 M 32,113 h1 M 33,113 h1 M 34,113 h1 M 35,113 h1 M 36,113 h1 M 37,113 h1 M 38,113 h1 M 39,113 h1 M 40,113 h1 M 41,113 h1 M 42,113 h1 M 43,113 h1 M 44,113 h1 M 45,113 h1 M 46,113 h1 M 47,113 h1 M 48,113 h1 M 69,113 h1 M 70,113 h1 M 71,113 h1 M 72,113 h1 M 73,113 h1 M 74,113 h1 M 75,113 h1 M 76,113 h1 M 77,113 h1 M 78,113 h1 M 79,113 h1 M 80,113 h1 M 81,113 h1 M 82,113 h1 M 83,113 h1 M 84,113 h1 M 85,113 h1 M 86,113 h1 M 87,113 h1 M 88,113 h1 M 106,113 h1 M 107,113 h1 M 108,113 h1 M 12,114 h1 M 13,114 h1 M 14,114 h1 M 15,114 h1 M 16,114 h1 M 17,114 h1 M 18,114 h1 M 19,114 h1 M 20,114 h1 M 21,114 h1 M 22,114 h1 M 23,114 h1 M 24,114 h1 M 25,114 h1 M 26,114 h1 M 27,114 h1 M 28,114 h1 M 29,114 h1 M 30,114 h1 M 31,114 h1 M 32,114 h1 M 33,114 h1 M 34,114 h1 M 35,114 h1 M 36,114 h1 M 37,114 h1 M 38,114 h1 M 39,114 h1 M 40,114 h1 M 41,114 h1 M 42,114 h1 M 43,114 h1 M 44,114 h1 M 45,114 h1 M 46,114 h1 M 47,114 h1 M 48,114 h1 M 69,114 h1 M 70,114 h1 M 71,114 h1 M 72,114 h1 M 73,114 h1 M 74,114 h1 M 75,114 h1 M 76,114 h1 M 77,114 h1 M 78,114 h1 M 79,114 h1 M 80,114 h1 M 81,114 h1 M 82,114 h1 M 83,114 h1 M 84,114 h1 M 85,114 h1 M 86,114 h1 M 87,114 h1 M 88,114 h1 M 106,114 h1 M 107,114 h1 M 108,114 h1 M 12,115 h1 M 13,115 h1 M 14,115 h1 M 15,115 h1 M 16,115 h1 M 17,115 h1 M 18,115 h1 M 19,115 h1 M 20,115 h1 M 21,115 h1 M 22,115 h1 M 23,115 h1 M 24,115 h1 M 25,115 h1 M 26,115 h1 M 27,115 h1 M 28,115 h1 M 29,115 h1 M 30,115 h1 M 31,115 h1 M 32,115 h1 M 33,115 h1 M 34,115 h1 M 35,115 h1 M 36,115 h1 M 37,115 h1 M 38,115 h1 M 39,115 h1 M 40,115 h1 M 41,115 h1 M 42,115 h1 M 43,115 h1 M 44,115 h1 M 45,115 h1 M 46,115 h1 M 47,115 h1 M 68,115 h1 M 69,115 h1 M 70,115 h1 M 71,115 h1 M 72,115 h1 M 73,115 h1 M 74,115 h1 M 75,115 h1 M 76,115 h1 M 77,115 h1 M 78,115 h1 M 79,115 h1 M 80,115 h1 M 81,115 h1 M 82,115 h1 M 83,115 h1 M 84,115 h1 M 85,115 h1 M 86,115 h1 M 87,115 h1 M 106,115 h1 M 107,115 h1 M 108,115 h1 M 12,116 h1 M 13,116 h1 M 14,116 h1 M 15,116 h1 M 16,116 h1 M 17,116 h1 M 18,116 h1 M 19,116 h1 M 20,116 h1 M 21,116 h1 M 22,116 h1 M 23,116 h1 M 24,116 h1 M 25,116 h1 M 26,116 h1 M 27,116 h1 M 28,116 h1 M 29,116 h1 M 30,116 h1 M 31,116 h1 M 32,116 h1 M 33,116 h1 M 34,116 h1 M 35,116 h1 M 36,116 h1 M 37,116 h1 M 38,116 h1 M 39,116 h1 M 40,116 h1 M 41,116 h1 M 42,116 h1 M 43,116 h1 M 44,116 h1 M 45,116 h1 M 46,116 h1 M 67,116 h1 M 68,116 h1 M 69,116 h1 M 70,116 h1 M 71,116 h1 M 72,116 h1 M 73,116 h1 M 74,116 h1 M 75,116 h1 M 76,116 h1 M 77,116 h1 M 78,116 h1 M 79,116 h1 M 80,116 h1 M 81,116 h1 M 82,116 h1 M 83,116 h1 M 84,116 h1 M 85,116 h1 M 86,116 h1 M 106,116 h1 M 107,116 h1 M 108,116 h1 M 109,116 h1 M 12,117 h1 M 13,117 h1 M 14,117 h1 M 15,117 h1 M 16,117 h1 M 17,117 h1 M 18,117 h1 M 19,117 h1 M 20,117 h1 M 21,117 h1 M 22,117 h1 M 23,117 h1 M 24,117 h1 M 25,117 h1 M 26,117 h1 M 27,117 h1 M 28,117 h1 M 29,117 h1 M 30,117 h1 M 31,117 h1 M 32,117 h1 M 33,117 h1 M 34,117 h1 M 35,117 h1 M 36,117 h1 M 37,117 h1 M 38,117 h1 M 39,117 h1 M 40,117 h1 M 41,117 h1 M 42,117 h1 M 43,117 h1 M 44,117 h1 M 45,117 h1 M 46,117 h1 M 67,117 h1 M 68,117 h1 M 69,117 h1 M 70,117 h1 M 71,117 h1 M 72,117 h1 M 73,117 h1 M 74,117 h1 M 75,117 h1 M 76,117 h1 M 77,117 h1 M 78,117 h1 M 79,117 h1 M 80,117 h1 M 81,117 h1 M 82,117 h1 M 83,117 h1 M 84,117 h1 M 85,117 h1 M 106,117 h1 M 107,117 h1 M 108,117 h1 M 109,117 h1 M 12,118 h1 M 13,118 h1 M 14,118 h1 M 15,118 h1 M 16,118 h1 M 17,118 h1 M 18,118 h1 M 19,118 h1 M 20,118 h1 M 21,118 h1 M 22,118 h1 M 23,118 h1 M 24,118 h1 M 25,118 h1 M 26,118 h1 M 27,118 h1 M 28,118 h1 M 29,118 h1 M 30,118 h1 M 31,118 h1 M 32,118 h1 M 33,118 h1 M 34,118 h1 M 35,118 h1 M 36,118 h1 M 37,118 h1 M 38,118 h1 M 39,118 h1 M 40,118 h1 M 41,118 h1 M 42,118 h1 M 43,118 h1 M 44,118 h1 M 45,118 h1 M 46,118 h1 M 66,118 h1 M 67,118 h1 M 68,118 h1 M 69,118 h1 M 70,118 h1 M 71,118 h1 M 72,118 h1 M 73,118 h1 M 74,118 h1 M 75,118 h1 M 76,118 h1 M 77,118 h1 M 78,118 h1 M 79,118 h1 M 80,118 h1 M 81,118 h1 M 82,118 h1 M 83,118 h1 M 84,118 h1 M 105,118 h1 M 106,118 h1 M 107,118 h1 M 108,118 h1 M 109,118 h1 M 110,118 h1 M 11,119 h1 M 12,119 h1 M 13,119 h1 M 14,119 h1 M 15,119 h1 M 16,119 h1 M 17,119 h1 M 18,119 h1 M 19,119 h1 M 20,119 h1 M 21,119 h1 M 22,119 h1 M 23,119 h1 M 24,119 h1 M 25,119 h1 M 26,119 h1 M 27,119 h1 M 28,119 h1 M 29,119 h1 M 30,119 h1 M 31,119 h1 M 32,119 h1 M 33,119 h1 M 34,119 h1 M 35,119 h1 M 36,119 h1 M 37,119 h1 M 38,119 h1 M 39,119 h1 M 40,119 h1 M 41,119 h1 M 42,119 h1 M 43,119 h1 M 44,119 h1 M 45,119 h1 M 65,119 h1 M 66,119 h1 M 67,119 h1 M 68,119 h1 M 69,119 h1 M 70,119 h1 M 71,119 h1 M 72,119 h1 M 73,119 h1 M 74,119 h1 M 75,119 h1 M 76,119 h1 M 77,119 h1 M 78,119 h1 M 79,119 h1 M 80,119 h1 M 81,119 h1 M 82,119 h1 M 83,119 h1 M 105,119 h1 M 106,119 h1 M 107,119 h1 M 108,119 h1 M 109,119 h1 M 110,119 h1 M 11,120 h1 M 12,120 h1 M 13,120 h1 M 14,120 h1 M 15,120 h1 M 16,120 h1 M 17,120 h1 M 18,120 h1 M 19,120 h1 M 20,120 h1 M 21,120 h1 M 22,120 h1 M 23,120 h1 M 24,120 h1 M 25,120 h1 M 26,120 h1 M 27,120 h1 M 28,120 h1 M 29,120 h1 M 30,120 h1 M 31,120 h1 M 32,120 h1 M 33,120 h1 M 34,120 h1 M 35,120 h1 M 36,120 h1 M 37,120 h1 M 38,120 h1 M 39,120 h1 M 40,120 h1 M 41,120 h1 M 42,120 h1 M 43,120 h1 M 44,120 h1 M 65,120 h1 M 66,120 h1 M 67,120 h1 M 68,120 h1 M 69,120 h1 M 70,120 h1 M 71,120 h1 M 72,120 h1 M 73,120 h1 M 74,120 h1 M 75,120 h1 M 76,120 h1 M 77,120 h1 M 78,120 h1 M 79,120 h1 M 80,120 h1 M 81,120 h1 M 82,120 h1 M 105,120 h1 M 106,120 h1 M 107,120 h1 M 108,120 h1 M 109,120 h1 M 110,120 h1 M 12,121 h1 M 13,121 h1 M 14,121 h1 M 15,121 h1 M 16,121 h1 M 17,121 h1 M 18,121 h1 M 19,121 h1 M 20,121 h1 M 21,121 h1 M 22,121 h1 M 23,121 h1 M 24,121 h1 M 25,121 h1 M 26,121 h1 M 27,121 h1 M 28,121 h1 M 29,121 h1 M 30,121 h1 M 31,121 h1 M 32,121 h1 M 33,121 h1 M 34,121 h1 M 35,121 h1 M 36,121 h1 M 37,121 h1 M 38,121 h1 M 39,121 h1 M 40,121 h1 M 41,121 h1 M 42,121 h1 M 43,121 h1 M 44,121 h1 M 65,121 h1 M 66,121 h1 M 67,121 h1 M 68,121 h1 M 69,121 h1 M 70,121 h1 M 71,121 h1 M 72,121 h1 M 73,121 h1 M 74,121 h1 M 75,121 h1 M 76,121 h1 M 77,121 h1 M 78,121 h1 M 79,121 h1 M 80,121 h1 M 81,121 h1 M 104,121 h1 M 105,121 h1 M 106,121 h1 M 107,121 h1 M 108,121 h1 M 109,121 h1 M 110,121 h1 M 12,122 h1 M 13,122 h1 M 14,122 h1 M 15,122 h1 M 16,122 h1 M 17,122 h1 M 18,122 h1 M 19,122 h1 M 20,122 h1 M 21,122 h1 M 22,122 h1 M 23,122 h1 M 24,122 h1 M 25,122 h1 M 26,122 h1 M 27,122 h1 M 28,122 h1 M 29,122 h1 M 30,122 h1 M 31,122 h1 M 32,122 h1 M 33,122 h1 M 34,122 h1 M 35,122 h1 M 36,122 h1 M 37,122 h1 M 38,122 h1 M 39,122 h1 M 40,122 h1 M 41,122 h1 M 42,122 h1 M 43,122 h1 M 64,122 h1 M 65,122 h1 M 66,122 h1 M 67,122 h1 M 68,122 h1 M 69,122 h1 M 70,122 h1 M 71,122 h1 M 72,122 h1 M 73,122 h1 M 74,122 h1 M 75,122 h1 M 76,122 h1 M 77,122 h1 M 78,122 h1 M 79,122 h1 M 80,122 h1 M 104,122 h1 M 105,122 h1 M 106,122 h1 M 107,122 h1 M 108,122 h1 M 109,122 h1 M 110,122 h1 M 11,123 h1 M 12,123 h1 M 13,123 h1 M 14,123 h1 M 15,123 h1 M 16,123 h1 M 17,123 h1 M 18,123 h1 M 19,123 h1 M 20,123 h1 M 21,123 h1 M 22,123 h1 M 23,123 h1 M 24,123 h1 M 25,123 h1 M 26,123 h1 M 27,123 h1 M 28,123 h1 M 29,123 h1 M 30,123 h1 M 31,123 h1 M 32,123 h1 M 33,123 h1 M 34,123 h1 M 35,123 h1 M 36,123 h1 M 37,123 h1 M 38,123 h1 M 39,123 h1 M 40,123 h1 M 41,123 h1 M 42,123 h1 M 43,123 h1 M 64,123 h1 M 65,123 h1 M 66,123 h1 M 67,123 h1 M 68,123 h1 M 69,123 h1 M 70,123 h1 M 71,123 h1 M 72,123 h1 M 73,123 h1 M 74,123 h1 M 75,123 h1 M 76,123 h1 M 77,123 h1 M 78,123 h1 M 79,123 h1 M 103,123 h1 M 104,123 h1 M 105,123 h1 M 106,123 h1 M 107,123 h1 M 108,123 h1 M 109,123 h1 M 110,123 h1 M 12,124 h1 M 13,124 h1 M 14,124 h1 M 15,124 h1 M 16,124 h1 M 17,124 h1 M 18,124 h1 M 19,124 h1 M 20,124 h1 M 21,124 h1 M 22,124 h1 M 23,124 h1 M 24,124 h1 M 25,124 h1 M 26,124 h1 M 27,124 h1 M 28,124 h1 M 29,124 h1 M 30,124 h1 M 31,124 h1 M 32,124 h1 M 33,124 h1 M 34,124 h1 M 35,124 h1 M 36,124 h1 M 37,124 h1 M 38,124 h1 M 39,124 h1 M 40,124 h1 M 41,124 h1 M 42,124 h1 M 43,124 h1 M 63,124 h1 M 64,124 h1 M 65,124 h1 M 66,124 h1 M 67,124 h1 M 68,124 h1 M 69,124 h1 M 70,124 h1 M 71,124 h1 M 72,124 h1 M 73,124 h1 M 74,124 h1 M 75,124 h1 M 76,124 h1 M 77,124 h1 M 78,124 h1 M 103,124 h1 M 104,124 h1 M 105,124 h1 M 106,124 h1 M 107,124 h1 M 108,124 h1 M 109,124 h1 M 110,124 h1 M 12,125 h1 M 13,125 h1 M 14,125 h1 M 15,125 h1 M 16,125 h1 M 17,125 h1 M 18,125 h1 M 19,125 h1 M 20,125 h1 M 21,125 h1 M 22,125 h1 M 23,125 h1 M 24,125 h1 M 25,125 h1 M 26,125 h1 M 27,125 h1 M 28,125 h1 M 29,125 h1 M 30,125 h1 M 31,125 h1 M 32,125 h1 M 33,125 h1 M 34,125 h1 M 35,125 h1 M 36,125 h1 M 37,125 h1 M 38,125 h1 M 39,125 h1 M 40,125 h1 M 41,125 h1 M 42,125 h1 M 43,125 h1 M 63,125 h1 M 64,125 h1 M 65,125 h1 M 66,125 h1 M 67,125 h1 M 68,125 h1 M 69,125 h1 M 70,125 h1 M 71,125 h1 M 72,125 h1 M 73,125 h1 M 74,125 h1 M 75,125 h1 M 76,125 h1 M 77,125 h1 M 102,125 h1 M 103,125 h1 M 104,125 h1 M 105,125 h1 M 106,125 h1 M 107,125 h1 M 108,125 h1 M 109,125 h1 M 110,125 h1 M 12,126 h1 M 13,126 h1 M 14,126 h1 M 15,126 h1 M 16,126 h1 M 17,126 h1 M 18,126 h1 M 19,126 h1 M 20,126 h1 M 21,126 h1 M 22,126 h1 M 23,126 h1 M 24,126 h1 M 25,126 h1 M 26,126 h1 M 27,126 h1 M 28,126 h1 M 29,126 h1 M 30,126 h1 M 31,126 h1 M 32,126 h1 M 33,126 h1 M 34,126 h1 M 35,126 h1 M 36,126 h1 M 37,126 h1 M 38,126 h1 M 39,126 h1 M 40,126 h1 M 41,126 h1 M 42,126 h1 M 62,126 h1 M 63,126 h1 M 64,126 h1 M 65,126 h1 M 66,126 h1 M 67,126 h1 M 68,126 h1 M 69,126 h1 M 70,126 h1 M 71,126 h1 M 72,126 h1 M 73,126 h1 M 74,126 h1 M 75,126 h1 M 76,126 h1 M 77,126 h1 M 102,126 h1 M 103,126 h1 M 104,126 h1 M 105,126 h1 M 106,126 h1 M 107,126 h1 M 108,126 h1 M 109,126 h1 M 110,126 h1 M 12,127 h1 M 13,127 h1 M 14,127 h1 M 15,127 h1 M 16,127 h1 M 17,127 h1 M 18,127 h1 M 19,127 h1 M 20,127 h1 M 21,127 h1 M 22,127 h1 M 23,127 h1 M 24,127 h1 M 25,127 h1 M 26,127 h1 M 27,127 h1 M 28,127 h1 M 29,127 h1 M 30,127 h1 M 31,127 h1 M 32,127 h1 M 33,127 h1 M 34,127 h1 M 35,127 h1 M 36,127 h1 M 37,127 h1 M 38,127 h1 M 39,127 h1 M 40,127 h1 M 41,127 h1 M 42,127 h1 M 62,127 h1 M 63,127 h1 M 64,127 h1 M 65,127 h1 M 66,127 h1 M 67,127 h1 M 68,127 h1 M 69,127 h1 M 70,127 h1 M 71,127 h1 M 72,127 h1 M 73,127 h1 M 74,127 h1 M 75,127 h1 M 76,127 h1 M 101,127 h1 M 102,127 h1 M 103,127 h1 M 104,127 h1 M 105,127 h1 M 106,127 h1 M 107,127 h1 M 108,127 h1 M 109,127 h1 M 110,127 h1 M 12,128 h1 M 13,128 h1 M 14,128 h1 M 15,128 h1 M 16,128 h1 M 17,128 h1 M 18,128 h1 M 19,128 h1 M 20,128 h1 M 21,128 h1 M 22,128 h1 M 23,128 h1 M 24,128 h1 M 25,128 h1 M 26,128 h1 M 27,128 h1 M 28,128 h1 M 29,128 h1 M 30,128 h1 M 31,128 h1 M 32,128 h1 M 33,128 h1 M 34,128 h1 M 35,128 h1 M 36,128 h1 M 37,128 h1 M 38,128 h1 M 39,128 h1 M 40,128 h1 M 41,128 h1 M 42,128 h1 M 61,128 h1 M 62,128 h1 M 63,128 h1 M 64,128 h1 M 65,128 h1 M 66,128 h1 M 67,128 h1 M 68,128 h1 M 69,128 h1 M 70,128 h1 M 71,128 h1 M 72,128 h1 M 73,128 h1 M 74,128 h1 M 75,128 h1 M 101,128 h1 M 102,128 h1 M 103,128 h1 M 104,128 h1 M 105,128 h1 M 106,128 h1 M 107,128 h1 M 108,128 h1 M 109,128 h1 M 110,128 h1 M 12,129 h1 M 13,129 h1 M 14,129 h1 M 15,129 h1 M 16,129 h1 M 17,129 h1 M 18,129 h1 M 19,129 h1 M 20,129 h1 M 21,129 h1 M 22,129 h1 M 23,129 h1 M 24,129 h1 M 25,129 h1 M 26,129 h1 M 27,129 h1 M 28,129 h1 M 29,129 h1 M 30,129 h1 M 31,129 h1 M 32,129 h1 M 33,129 h1 M 34,129 h1 M 35,129 h1 M 36,129 h1 M 37,129 h1 M 38,129 h1 M 39,129 h1 M 40,129 h1 M 41,129 h1 M 42,129 h1 M 61,129 h1 M 62,129 h1 M 63,129 h1 M 64,129 h1 M 65,129 h1 M 66,129 h1 M 67,129 h1 M 68,129 h1 M 69,129 h1 M 70,129 h1 M 71,129 h1 M 72,129 h1 M 73,129 h1 M 74,129 h1 M 100,129 h1 M 101,129 h1 M 102,129 h1 M 103,129 h1 M 104,129 h1 M 105,129 h1 M 106,129 h1 M 107,129 h1 M 108,129 h1 M 109,129 h1 M 12,130 h1 M 13,130 h1 M 14,130 h1 M 15,130 h1 M 16,130 h1 M 17,130 h1 M 18,130 h1 M 19,130 h1 M 20,130 h1 M 21,130 h1 M 22,130 h1 M 23,130 h1 M 24,130 h1 M 25,130 h1 M 26,130 h1 M 27,130 h1 M 28,130 h1 M 29,130 h1 M 30,130 h1 M 31,130 h1 M 32,130 h1 M 33,130 h1 M 34,130 h1 M 35,130 h1 M 36,130 h1 M 37,130 h1 M 38,130 h1 M 39,130 h1 M 40,130 h1 M 41,130 h1 M 42,130 h1 M 61,130 h1 M 62,130 h1 M 63,130 h1 M 64,130 h1 M 65,130 h1 M 66,130 h1 M 67,130 h1 M 68,130 h1 M 69,130 h1 M 70,130 h1 M 71,130 h1 M 72,130 h1 M 73,130 h1 M 98,130 h1 M 99,130 h1 M 100,130 h1 M 101,130 h1 M 102,130 h1 M 103,130 h1 M 104,130 h1 M 105,130 h1 M 106,130 h1 M 107,130 h1 M 108,130 h1 M 109,130 h1 M 13,131 h1 M 14,131 h1 M 15,131 h1 M 16,131 h1 M 17,131 h1 M 18,131 h1 M 19,131 h1 M 20,131 h1 M 21,131 h1 M 22,131 h1 M 23,131 h1 M 24,131 h1 M 25,131 h1 M 26,131 h1 M 27,131 h1 M 28,131 h1 M 29,131 h1 M 30,131 h1 M 31,131 h1 M 32,131 h1 M 33,131 h1 M 34,131 h1 M 35,131 h1 M 36,131 h1 M 37,131 h1 M 38,131 h1 M 39,131 h1 M 40,131 h1 M 41,131 h1 M 42,131 h1 M 61,131 h1 M 62,131 h1 M 63,131 h1 M 64,131 h1 M 65,131 h1 M 66,131 h1 M 67,131 h1 M 68,131 h1 M 69,131 h1 M 70,131 h1 M 71,131 h1 M 72,131 h1 M 98,131 h1 M 99,131 h1 M 100,131 h1 M 101,131 h1 M 102,131 h1 M 103,131 h1 M 104,131 h1 M 105,131 h1 M 106,131 h1 M 107,131 h1 M 108,131 h1 M 13,132 h1 M 14,132 h1 M 15,132 h1 M 16,132 h1 M 17,132 h1 M 18,132 h1 M 19,132 h1 M 20,132 h1 M 21,132 h1 M 22,132 h1 M 23,132 h1 M 24,132 h1 M 25,132 h1 M 26,132 h1 M 27,132 h1 M 28,132 h1 M 29,132 h1 M 30,132 h1 M 31,132 h1 M 32,132 h1 M 33,132 h1 M 34,132 h1 M 35,132 h1 M 36,132 h1 M 37,132 h1 M 38,132 h1 M 39,132 h1 M 40,132 h1 M 41,132 h1 M 42,132 h1 M 61,132 h1 M 62,132 h1 M 63,132 h1 M 64,132 h1 M 65,132 h1 M 66,132 h1 M 67,132 h1 M 68,132 h1 M 69,132 h1 M 70,132 h1 M 71,132 h1 M 97,132 h1 M 98,132 h1 M 99,132 h1 M 100,132 h1 M 101,132 h1 M 102,132 h1 M 103,132 h1 M 104,132 h1 M 105,132 h1 M 106,132 h1 M 107,132 h1 M 108,132 h1 M 14,133 h1 M 15,133 h1 M 16,133 h1 M 17,133 h1 M 18,133 h1 M 19,133 h1 M 20,133 h1 M 21,133 h1 M 22,133 h1 M 23,133 h1 M 24,133 h1 M 25,133 h1 M 26,133 h1 M 27,133 h1 M 28,133 h1 M 29,133 h1 M 30,133 h1 M 31,133 h1 M 32,133 h1 M 33,133 h1 M 34,133 h1 M 35,133 h1 M 36,133 h1 M 37,133 h1 M 38,133 h1 M 39,133 h1 M 40,133 h1 M 41,133 h1 M 42,133 h1 M 61,133 h1 M 62,133 h1 M 63,133 h1 M 64,133 h1 M 65,133 h1 M 66,133 h1 M 67,133 h1 M 68,133 h1 M 69,133 h1 M 70,133 h1 M 96,133 h1 M 97,133 h1 M 98,133 h1 M 99,133 h1 M 100,133 h1 M 101,133 h1 M 102,133 h1 M 103,133 h1 M 104,133 h1 M 105,133 h1 M 106,133 h1 M 107,133 h1 M 14,134 h1 M 15,134 h1 M 16,134 h1 M 17,134 h1 M 18,134 h1 M 19,134 h1 M 20,134 h1 M 21,134 h1 M 22,134 h1 M 23,134 h1 M 24,134 h1 M 25,134 h1 M 26,134 h1 M 27,134 h1 M 28,134 h1 M 29,134 h1 M 30,134 h1 M 31,134 h1 M 32,134 h1 M 33,134 h1 M 34,134 h1 M 35,134 h1 M 36,134 h1 M 37,134 h1 M 38,134 h1 M 39,134 h1 M 40,134 h1 M 41,134 h1 M 42,134 h1 M 61,134 h1 M 62,134 h1 M 63,134 h1 M 64,134 h1 M 65,134 h1 M 66,134 h1 M 67,134 h1 M 68,134 h1 M 69,134 h1 M 70,134 h1 M 95,134 h1 M 96,134 h1 M 97,134 h1 M 98,134 h1 M 99,134 h1 M 100,134 h1 M 101,134 h1 M 102,134 h1 M 103,134 h1 M 104,134 h1 M 105,134 h1 M 106,134 h1 M 107,134 h1 M 15,135 h1 M 16,135 h1 M 17,135 h1 M 18,135 h1 M 19,135 h1 M 20,135 h1 M 21,135 h1 M 22,135 h1 M 23,135 h1 M 24,135 h1 M 25,135 h1 M 26,135 h1 M 27,135 h1 M 28,135 h1 M 29,135 h1 M 30,135 h1 M 31,135 h1 M 32,135 h1 M 33,135 h1 M 34,135 h1 M 35,135 h1 M 36,135 h1 M 37,135 h1 M 38,135 h1 M 39,135 h1 M 40,135 h1 M 41,135 h1 M 42,135 h1 M 61,135 h1 M 62,135 h1 M 63,135 h1 M 64,135 h1 M 65,135 h1 M 66,135 h1 M 67,135 h1 M 68,135 h1 M 69,135 h1 M 94,135 h1 M 95,135 h1 M 96,135 h1 M 97,135 h1 M 98,135 h1 M 99,135 h1 M 100,135 h1 M 101,135 h1 M 102,135 h1 M 103,135 h1 M 104,135 h1 M 105,135 h1 M 106,135 h1 M 15,136 h1 M 16,136 h1 M 17,136 h1 M 18,136 h1 M 19,136 h1 M 20,136 h1 M 21,136 h1 M 22,136 h1 M 23,136 h1 M 24,136 h1 M 25,136 h1 M 26,136 h1 M 27,136 h1 M 28,136 h1 M 29,136 h1 M 30,136 h1 M 31,136 h1 M 32,136 h1 M 33,136 h1 M 34,136 h1 M 35,136 h1 M 36,136 h1 M 37,136 h1 M 38,136 h1 M 39,136 h1 M 40,136 h1 M 41,136 h1 M 42,136 h1 M 61,136 h1 M 62,136 h1 M 63,136 h1 M 64,136 h1 M 65,136 h1 M 66,136 h1 M 67,136 h1 M 68,136 h1 M 69,136 h1 M 93,136 h1 M 94,136 h1 M 95,136 h1 M 96,136 h1 M 97,136 h1 M 98,136 h1 M 99,136 h1 M 100,136 h1 M 101,136 h1 M 102,136 h1 M 103,136 h1 M 104,136 h1 M 105,136 h1 M 106,136 h1 M 16,137 h1 M 17,137 h1 M 18,137 h1 M 19,137 h1 M 20,137 h1 M 21,137 h1 M 22,137 h1 M 23,137 h1 M 24,137 h1 M 25,137 h1 M 26,137 h1 M 27,137 h1 M 28,137 h1 M 29,137 h1 M 30,137 h1 M 31,137 h1 M 32,137 h1 M 33,137 h1 M 34,137 h1 M 35,137 h1 M 36,137 h1 M 37,137 h1 M 38,137 h1 M 39,137 h1 M 40,137 h1 M 41,137 h1 M 42,137 h1 M 61,137 h1 M 62,137 h1 M 63,137 h1 M 64,137 h1 M 65,137 h1 M 66,137 h1 M 67,137 h1 M 68,137 h1 M 92,137 h1 M 93,137 h1 M 94,137 h1 M 95,137 h1 M 96,137 h1 M 97,137 h1 M 98,137 h1 M 99,137 h1 M 100,137 h1 M 101,137 h1 M 102,137 h1 M 103,137 h1 M 104,137 h1 M 105,137 h1 M 17,138 h1 M 18,138 h1 M 19,138 h1 M 20,138 h1 M 21,138 h1 M 22,138 h1 M 23,138 h1 M 24,138 h1 M 25,138 h1 M 26,138 h1 M 27,138 h1 M 28,138 h1 M 29,138 h1 M 30,138 h1 M 31,138 h1 M 32,138 h1 M 33,138 h1 M 34,138 h1 M 35,138 h1 M 36,138 h1 M 37,138 h1 M 38,138 h1 M 39,138 h1 M 40,138 h1 M 41,138 h1 M 42,138 h1 M 61,138 h1 M 62,138 h1 M 63,138 h1 M 64,138 h1 M 65,138 h1 M 66,138 h1 M 67,138 h1 M 68,138 h1 M 91,138 h1 M 92,138 h1 M 93,138 h1 M 94,138 h1 M 95,138 h1 M 96,138 h1 M 97,138 h1 M 98,138 h1 M 99,138 h1 M 100,138 h1 M 101,138 h1 M 102,138 h1 M 103,138 h1 M 104,138 h1 M 17,139 h1 M 18,139 h1 M 19,139 h1 M 20,139 h1 M 21,139 h1 M 22,139 h1 M 23,139 h1 M 24,139 h1 M 25,139 h1 M 26,139 h1 M 27,139 h1 M 28,139 h1 M 29,139 h1 M 30,139 h1 M 31,139 h1 M 32,139 h1 M 33,139 h1 M 34,139 h1 M 35,139 h1 M 36,139 h1 M 37,139 h1 M 38,139 h1 M 39,139 h1 M 40,139 h1 M 41,139 h1 M 42,139 h1 M 61,139 h1 M 62,139 h1 M 63,139 h1 M 64,139 h1 M 65,139 h1 M 66,139 h1 M 67,139 h1 M 90,139 h1 M 91,139 h1 M 92,139 h1 M 93,139 h1 M 94,139 h1 M 95,139 h1 M 96,139 h1 M 97,139 h1 M 98,139 h1 M 99,139 h1 M 100,139 h1 M 101,139 h1 M 102,139 h1 M 103,139 h1 M 18,140 h1 M 19,140 h1 M 20,140 h1 M 21,140 h1 M 22,140 h1 M 23,140 h1 M 24,140 h1 M 25,140 h1 M 26,140 h1 M 27,140 h1 M 28,140 h1 M 29,140 h1 M 30,140 h1 M 31,140 h1 M 32,140 h1 M 33,140 h1 M 34,140 h1 M 35,140 h1 M 36,140 h1 M 37,140 h1 M 38,140 h1 M 39,140 h1 M 40,140 h1 M 41,140 h1 M 42,140 h1 M 61,140 h1 M 62,140 h1 M 63,140 h1 M 64,140 h1 M 65,140 h1 M 66,140 h1 M 67,140 h1 M 89,140 h1 M 90,140 h1 M 91,140 h1 M 92,140 h1 M 93,140 h1 M 94,140 h1 M 95,140 h1 M 96,140 h1 M 97,140 h1 M 98,140 h1 M 99,140 h1 M 100,140 h1 M 101,140 h1 M 102,140 h1 M 19,141 h1 M 20,141 h1 M 21,141 h1 M 22,141 h1 M 23,141 h1 M 24,141 h1 M 25,141 h1 M 26,141 h1 M 27,141 h1 M 28,141 h1 M 29,141 h1 M 30,141 h1 M 31,141 h1 M 32,141 h1 M 33,141 h1 M 34,141 h1 M 35,141 h1 M 36,141 h1 M 37,141 h1 M 38,141 h1 M 39,141 h1 M 40,141 h1 M 41,141 h1 M 42,141 h1 M 61,141 h1 M 62,141 h1 M 63,141 h1 M 64,141 h1 M 65,141 h1 M 66,141 h1 M 88,141 h1 M 89,141 h1 M 90,141 h1 M 91,141 h1 M 92,141 h1 M 93,141 h1 M 94,141 h1 M 95,141 h1 M 96,141 h1 M 97,141 h1 M 98,141 h1 M 99,141 h1 M 100,141 h1 M 101,141 h1 M 20,142 h1 M 21,142 h1 M 22,142 h1 M 23,142 h1 M 24,142 h1 M 25,142 h1 M 26,142 h1 M 27,142 h1 M 28,142 h1 M 29,142 h1 M 30,142 h1 M 31,142 h1 M 32,142 h1 M 33,142 h1 M 34,142 h1 M 35,142 h1 M 36,142 h1 M 37,142 h1 M 38,142 h1 M 39,142 h1 M 40,142 h1 M 41,142 h1 M 42,142 h1 M 43,142 h1 M 61,142 h1 M 62,142 h1 M 63,142 h1 M 64,142 h1 M 65,142 h1 M 66,142 h1 M 87,142 h1 M 88,142 h1 M 89,142 h1 M 90,142 h1 M 91,142 h1 M 92,142 h1 M 93,142 h1 M 94,142 h1 M 95,142 h1 M 96,142 h1 M 97,142 h1 M 98,142 h1 M 99,142 h1 M 100,142 h1 M 21,143 h1 M 22,143 h1 M 24,143 h1 M 25,143 h1 M 26,143 h1 M 27,143 h1 M 28,143 h1 M 29,143 h1 M 30,143 h1 M 31,143 h1 M 32,143 h1 M 33,143 h1 M 34,143 h1 M 35,143 h1 M 36,143 h1 M 37,143 h1 M 38,143 h1 M 39,143 h1 M 40,143 h1 M 41,143 h1 M 42,143 h1 M 43,143 h1 M 62,143 h1 M 63,143 h1 M 64,143 h1 M 65,143 h1 M 66,143 h1 M 86,143 h1 M 87,143 h1 M 88,143 h1 M 89,143 h1 M 90,143 h1 M 91,143 h1 M 92,143 h1 M 93,143 h1 M 94,143 h1 M 95,143 h1 M 96,143 h1 M 97,143 h1 M 98,143 h1 M 99,143 h1 M 22,144 h1 M 23,144 h1 M 24,144 h1 M 25,144 h1 M 26,144 h1 M 27,144 h1 M 28,144 h1 M 29,144 h1 M 30,144 h1 M 31,144 h1 M 32,144 h1 M 33,144 h1 M 34,144 h1 M 35,144 h1 M 36,144 h1 M 37,144 h1 M 38,144 h1 M 39,144 h1 M 40,144 h1 M 41,144 h1 M 42,144 h1 M 43,144 h1 M 62,144 h1 M 63,144 h1 M 64,144 h1 M 65,144 h1 M 66,144 h1 M 85,144 h1 M 86,144 h1 M 87,144 h1 M 88,144 h1 M 89,144 h1 M 90,144 h1 M 91,144 h1 M 92,144 h1 M 93,144 h1 M 94,144 h1 M 95,144 h1 M 96,144 h1 M 97,144 h1 M 98,144 h1 M 23,145 h1 M 24,145 h1 M 25,145 h1 M 26,145 h1 M 27,145 h1 M 28,145 h1 M 29,145 h1 M 30,145 h1 M 31,145 h1 M 32,145 h1 M 33,145 h1 M 34,145 h1 M 35,145 h1 M 36,145 h1 M 37,145 h1 M 38,145 h1 M 39,145 h1 M 40,145 h1 M 41,145 h1 M 42,145 h1 M 43,145 h1 M 44,145 h1 M 62,145 h1 M 63,145 h1 M 64,145 h1 M 65,145 h1 M 84,145 h1 M 85,145 h1 M 86,145 h1 M 87,145 h1 M 88,145 h1 M 89,145 h1 M 90,145 h1 M 91,145 h1 M 92,145 h1 M 93,145 h1 M 94,145 h1 M 95,145 h1 M 96,145 h1 M 97,145 h1 M 24,146 h1 M 25,146 h1 M 26,146 h1 M 27,146 h1 M 28,146 h1 M 29,146 h1 M 30,146 h1 M 31,146 h1 M 32,146 h1 M 33,146 h1 M 34,146 h1 M 35,146 h1 M 36,146 h1 M 37,146 h1 M 38,146 h1 M 39,146 h1 M 40,146 h1 M 41,146 h1 M 42,146 h1 M 43,146 h1 M 44,146 h1 M 62,146 h1 M 63,146 h1 M 64,146 h1 M 65,146 h1 M 83,146 h1 M 84,146 h1 M 85,146 h1 M 86,146 h1 M 87,146 h1 M 88,146 h1 M 89,146 h1 M 90,146 h1 M 91,146 h1 M 92,146 h1 M 93,146 h1 M 94,146 h1 M 95,146 h1 M 25,147 h1 M 26,147 h1 M 27,147 h1 M 28,147 h1 M 29,147 h1 M 30,147 h1 M 31,147 h1 M 32,147 h1 M 33,147 h1 M 34,147 h1 M 35,147 h1 M 36,147 h1 M 37,147 h1 M 38,147 h1 M 39,147 h1 M 40,147 h1 M 41,147 h1 M 42,147 h1 M 43,147 h1 M 44,147 h1 M 45,147 h1 M 63,147 h1 M 64,147 h1 M 65,147 h1 M 82,147 h1 M 83,147 h1 M 84,147 h1 M 85,147 h1 M 86,147 h1 M 87,147 h1 M 88,147 h1 M 89,147 h1 M 90,147 h1 M 91,147 h1 M 92,147 h1 M 93,147 h1 M 94,147 h1 M 26,148 h1 M 27,148 h1 M 28,148 h1 M 29,148 h1 M 30,148 h1 M 31,148 h1 M 32,148 h1 M 33,148 h1 M 34,148 h1 M 35,148 h1 M 36,148 h1 M 37,148 h1 M 38,148 h1 M 39,148 h1 M 40,148 h1 M 41,148 h1 M 42,148 h1 M 43,148 h1 M 44,148 h1 M 45,148 h1 M 63,148 h1 M 64,148 h1 M 65,148 h1 M 81,148 h1 M 82,148 h1 M 83,148 h1 M 84,148 h1 M 85,148 h1 M 86,148 h1 M 87,148 h1 M 88,148 h1 M 89,148 h1 M 90,148 h1 M 91,148 h1 M 92,148 h1 M 93,148 h1 M 27,149 h1 M 28,149 h1 M 29,149 h1 M 30,149 h1 M 31,149 h1 M 32,149 h1 M 33,149 h1 M 34,149 h1 M 35,149 h1 M 36,149 h1 M 37,149 h1 M 38,149 h1 M 39,149 h1 M 40,149 h1 M 41,149 h1 M 42,149 h1 M 43,149 h1 M 44,149 h1 M 45,149 h1 M 46,149 h1 M 64,149 h1 M 65,149 h1 M 80,149 h1 M 81,149 h1 M 82,149 h1 M 83,149 h1 M 84,149 h1 M 85,149 h1 M 86,149 h1 M 87,149 h1 M 88,149 h1 M 89,149 h1 M 90,149 h1 M 91,149 h1 M 29,150 h1 M 30,150 h1 M 31,150 h1 M 32,150 h1 M 33,150 h1 M 34,150 h1 M 35,150 h1 M 36,150 h1 M 37,150 h1 M 38,150 h1 M 39,150 h1 M 40,150 h1 M 41,150 h1 M 42,150 h1 M 43,150 h1 M 44,150 h1 M 45,150 h1 M 46,150 h1 M 64,150 h1 M 80,150 h1 M 81,150 h1 M 82,150 h1 M 83,150 h1 M 84,150 h1 M 85,150 h1 M 86,150 h1 M 87,150 h1 M 88,150 h1 M 89,150 h1 M 90,150 h1 M 30,151 h1 M 31,151 h1 M 32,151 h1 M 33,151 h1 M 34,151 h1 M 35,151 h1 M 36,151 h1 M 37,151 h1 M 38,151 h1 M 39,151 h1 M 40,151 h1 M 41,151 h1 M 42,151 h1 M 43,151 h1 M 44,151 h1 M 45,151 h1 M 46,151 h1 M 47,151 h1 M 79,151 h1 M 80,151 h1 M 81,151 h1 M 82,151 h1 M 83,151 h1 M 84,151 h1 M 85,151 h1 M 86,151 h1 M 87,151 h1 M 88,151 h1 M 32,152 h1 M 33,152 h1 M 34,152 h1 M 35,152 h1 M 36,152 h1 M 37,152 h1 M 38,152 h1 M 39,152 h1 M 40,152 h1 M 41,152 h1 M 42,152 h1 M 43,152 h1 M 44,152 h1 M 45,152 h1 M 46,152 h1 M 47,152 h1 M 48,152 h1 M 78,152 h1 M 79,152 h1 M 80,152 h1 M 81,152 h1 M 82,152 h1 M 83,152 h1 M 84,152 h1 M 85,152 h1 M 86,152 h1 M 33,153 h1 M 34,153 h1 M 35,153 h1 M 36,153 h1 M 37,153 h1 M 38,153 h1 M 39,153 h1 M 40,153 h1 M 41,153 h1 M 42,153 h1 M 43,153 h1 M 44,153 h1 M 45,153 h1 M 46,153 h1 M 47,153 h1 M 48,153 h1 M 78,153 h1 M 79,153 h1 M 80,153 h1 M 81,153 h1 M 82,153 h1 M 83,153 h1 M 84,153 h1 M 35,154 h1 M 36,154 h1 M 37,154 h1 M 38,154 h1 M 39,154 h1 M 40,154 h1 M 41,154 h1 M 42,154 h1 M 43,154 h1 M 44,154 h1 M 45,154 h1 M 46,154 h1 M 47,154 h1 M 48,154 h1 M 49,154 h1 M 50,154 h1 M 77,154 h1 M 78,154 h1 M 79,154 h1 M 80,154 h1 M 81,154 h1 M 82,154 h1 M 83,154 h1 M 36,155 h1 M 37,155 h1 M 38,155 h1 M 39,155 h1 M 40,155 h1 M 41,155 h1 M 42,155 h1 M 43,155 h1 M 44,155 h1 M 45,155 h1 M 46,155 h1 M 47,155 h1 M 48,155 h1 M 49,155 h1 M 50,155 h1 M 76,155 h1 M 77,155 h1 M 78,155 h1 M 79,155 h1 M 80,155 h1 M 81,155 h1 M 38,156 h1 M 39,156 h1 M 40,156 h1 M 41,156 h1 M 42,156 h1 M 43,156 h1 M 44,156 h1 M 45,156 h1 M 46,156 h1 M 47,156 h1 M 48,156 h1 M 49,156 h1 M 50,156 h1 M 51,156 h1 M 76,156 h1 M 77,156 h1 M 78,156 h1 M 79,156 h1 M 80,156 h1 M 40,157 h1 M 41,157 h1 M 42,157 h1 M 43,157 h1 M 44,157 h1 M 45,157 h1 M 46,157 h1 M 47,157 h1 M 48,157 h1 M 49,157 h1 M 50,157 h1 M 51,157 h1 M 52,157 h1 M 75,157 h1 M 76,157 h1 M 77,157 h1 M 78,157 h1 M 79,157 h1 M 41,158 h1 M 42,158 h1 M 43,158 h1 M 44,158 h1 M 45,158 h1 M 46,158 h1 M 47,158 h1 M 48,158 h1 M 49,158 h1 M 50,158 h1 M 51,158 h1 M 52,158 h1 M 53,158 h1 M 75,158 h1 M 76,158 h1 M 77,158 h1 M 78,158 h1 M 42,159 h1 M 44,159 h1 M 45,159 h1 M 46,159 h1 M 47,159 h1 M 48,159 h1 M 49,159 h1 M 50,159 h1 M 51,159 h1 M 52,159 h1 M 53,159 h1 M 75,159 h1 M 76,159 h1 M 77,159 h1 M 45,160 h1 M 46,160 h1 M 47,160 h1 M 48,160 h1 M 49,160 h1 M 50,160 h1 M 51,160 h1 M 52,160 h1 M 53,160 h1 M 54,160 h1 M 75,160 h1 M 76,160 h1 M 47,161 h1 M 48,161 h1 M 49,161 h1 M 50,161 h1 M 51,161 h1 M 52,161 h1 M 53,161 h1 M 54,161 h1 M 55,161 h1 M 75,161 h1 M 50,162 h1 M 51,162 h1 M 52,162 h1 M 53,162 h1 M 54,162 h1 M 55,162 h1 M 56,162 h1 M 52,163 h1 M 53,163 h1 M 54,163 h1 M 55,163 h1 M 56,163 h1 M 57,163 h1 M 55,164 h1 M 56,164 h1 M 57,164 h1 M 58,164 h1 M 57,165 h1 M 58,165 h1 M 59,165 h1 M 58,166 h1 M 59,166 h1 M 60,166 h1 " fill="#8C7E45" /></svg>